<svg width="130" height="45" viewBox="0 0 130 45" fill="none" xmlns="http://www.w3.org/2000/svg">
<path d="M118.852 35.712C116.804 35.712 114.948 35.248 113.284 34.32C111.62 33.392 110.292 32.032 109.3 30.24C108.34 28.448 107.86 26.288 107.86 23.76C107.86 21.232 108.34 19.072 109.3 17.28C110.292 15.488 111.62 14.128 113.284 13.2C114.948 12.272 116.804 11.808 118.852 11.808C120.9 11.808 122.756 12.272 124.42 13.2C126.084 14.128 127.396 15.488 128.356 17.28C129.348 19.072 129.844 21.232 129.844 23.76C129.844 26.288 129.348 28.448 128.356 30.24C127.396 32.032 126.084 33.392 124.42 34.32C122.756 35.248 120.9 35.712 118.852 35.712ZM118.852 31.2C120.612 31.2 122.004 30.576 123.028 29.328C124.052 28.048 124.564 26.192 124.564 23.76C124.564 21.328 124.052 19.488 123.028 18.24C122.004 16.96 120.612 16.32 118.852 16.32C117.092 16.32 115.7 16.96 114.676 18.24C113.652 19.488 113.14 21.328 113.14 23.76C113.14 26.192 113.652 28.048 114.676 29.328C115.7 30.576 117.092 31.2 118.852 31.2Z" fill="black"/>
<path d="M91.0297 35.712C89.2377 35.712 87.5897 35.248 86.0857 34.32C84.5817 33.392 83.3817 32.032 82.4857 30.24C81.5897 28.448 81.1417 26.288 81.1417 23.76C81.1417 21.232 81.5897 19.072 82.4857 17.28C83.3817 15.488 84.5817 14.128 86.0857 13.2C87.5897 12.272 89.2377 11.808 91.0297 11.808C92.3417 11.808 93.5257 12.032 94.5817 12.48C95.6377 12.896 96.5177 13.488 97.2217 14.256V0H102.502V35.04H97.9897L97.6057 32.544C96.8377 33.536 95.8937 34.32 94.7737 34.896C93.6857 35.44 92.4377 35.712 91.0297 35.712ZM92.3737 31.2C94.2937 31.2 95.9097 30.288 97.2217 28.464V19.056C95.9417 17.232 94.3257 16.32 92.3737 16.32C90.6777 16.32 89.2697 16.976 88.1497 18.288C87.0297 19.568 86.4697 21.392 86.4697 23.76C86.4697 26.128 87.0297 27.968 88.1497 29.28C89.2697 30.56 90.6777 31.2 92.3737 31.2Z" fill="black"/>
<path d="M67.239 35.712C65.831 35.712 64.567 35.44 63.447 34.896C62.327 34.32 61.383 33.536 60.615 32.544L60.279 35.04H55.719V0H60.999V14.256C62.567 12.624 64.647 11.808 67.239 11.808C69.031 11.808 70.679 12.272 72.183 13.2C73.687 14.128 74.887 15.488 75.783 17.28C76.679 19.072 77.127 21.232 77.127 23.76C77.127 26.288 76.679 28.448 75.783 30.24C74.887 32.032 73.687 33.392 72.183 34.32C70.679 35.248 69.031 35.712 67.239 35.712ZM65.895 31.2C67.559 31.2 68.951 30.56 70.071 29.28C71.223 27.968 71.799 26.128 71.799 23.76C71.799 21.392 71.223 19.568 70.071 18.288C68.951 16.976 67.559 16.32 65.895 16.32C63.911 16.32 62.279 17.232 60.999 19.056V28.464C62.311 30.288 63.943 31.2 65.895 31.2Z" fill="black"/>
<path d="M33.4793 44.64C32.0713 44.64 30.8553 44.416 29.8313 43.968V39.408C30.9193 39.888 31.9113 40.128 32.8073 40.128C33.9593 40.128 34.8713 39.776 35.5433 39.072C36.2153 38.368 36.8393 37.264 37.4153 35.76L38.1833 33.744L29.9273 12.48H35.4473L40.6793 27.072L46.2473 12.48H51.6233L41.2553 38.256C40.4553 40.272 39.3993 41.84 38.0873 42.96C36.8073 44.08 35.2713 44.64 33.4793 44.64Z" fill="black"/>
<path d="M15.024 35.712C12.176 35.712 9.616 35.04 7.344 33.696C5.072 32.352 3.28 30.384 1.968 27.792C0.656 25.2 0 22.096 0 18.48C0 14.928 0.656 11.856 1.968 9.26401C3.28 6.64001 5.072 4.65601 7.344 3.31201C9.616 1.93601 12.192 1.24801 15.072 1.24801C17.984 1.24801 20.48 1.85601 22.56 3.07201C24.672 4.28801 26.32 6.09601 27.504 8.49601L23.232 11.712C22.4 9.98401 21.264 8.65601 19.824 7.72801C18.384 6.80001 16.8 6.33601 15.072 6.33601C13.28 6.33601 11.664 6.81601 10.224 7.77601C8.784 8.70401 7.648 10.096 6.816 11.952C6.016 13.776 5.616 15.952 5.616 18.48C5.616 20.912 6.016 23.056 6.816 24.912C7.616 26.736 8.72 28.144 10.128 29.136C11.568 30.128 13.2 30.624 15.024 30.624C16.848 30.624 18.464 30.16 19.872 29.232C21.28 28.304 22.4 26.976 23.232 25.248L27.504 28.464C26.288 30.832 24.624 32.64 22.512 33.888C20.4 35.104 17.904 35.712 15.024 35.712Z" fill="black"/>
</svg>
