999
"DXF R12 Output" (www.mydxf.blogspot.com)
 0 
SECTION
 2 
HEADER
 9 
$ACADVER
 1 
AC1009
 9 
$EXTMIN
 10 
 0 
 20 
 0 
 9 
$EXTMAX
 10 
 8.5 
 20 
 11 
 0 
ENDSEC
 0 
SECTION
 2 
ENTITIES
0
POLYLINE
8
Layer 1
62
7
70
1
10
0.000000
20
0.000000
66
1
0
VERTEX
8
Layer 1
10
31.446219
20
2.457412
70
0
0
VERTEX
8
Layer 1
10
30.671520
20
2.549487
70
0
0
VERTEX
8
Layer 1
10
29.973021
20
2.825711
70
0
0
VERTEX
8
Layer 1
10
29.379296
20
3.279736
70
0
0
VERTEX
8
Layer 1
10
28.918922
20
3.905210
70
0
0
VERTEX
8
Layer 1
10
28.633172
20
4.689434
70
0
0
VERTEX
8
Layer 1
10
28.537922
20
5.619708
70
0
0
VERTEX
8
Layer 1
10
28.633172
20
6.549982
70
0
0
VERTEX
8
Layer 1
10
28.918922
20
7.334206
70
0
0
VERTEX
8
Layer 1
10
29.379296
20
7.959680
70
0
0
VERTEX
8
Layer 1
10
29.973021
20
8.413704
70
0
0
VERTEX
8
Layer 1
10
30.671520
20
8.689929
70
0
0
VERTEX
8
Layer 1
10
31.446219
20
8.782004
70
0
0
VERTEX
8
Layer 1
10
32.220918
20
8.689929
70
0
0
VERTEX
8
Layer 1
10
32.919417
20
8.413704
70
0
0
VERTEX
8
Layer 1
10
33.509966
20
7.959680
70
0
0
VERTEX
8
Layer 1
10
33.960816
20
7.334206
70
0
0
VERTEX
8
Layer 1
10
34.256090
20
6.549982
70
0
0
VERTEX
8
Layer 1
10
34.354515
20
5.619708
70
0
0
VERTEX
8
Layer 1
10
34.256090
20
4.689434
70
0
0
VERTEX
8
Layer 1
10
33.960816
20
3.905210
70
0
0
VERTEX
8
Layer 1
10
33.509966
20
3.279736
70
0
0
VERTEX
8
Layer 1
10
32.919417
20
2.825711
70
0
0
VERTEX
8
Layer 1
10
32.220918
20
2.549487
70
0
0
VERTEX
8
Layer 1
10
31.446219
20
2.457412
70
0
0
VERTEX
8
Layer 1
10
31.446219
20
2.457412
70
0
0
SEQEND
8
Layer 1
0
POLYLINE
8
Layer 1
62
7
70
1
10
0.000000
20
0.000000
66
1
0
VERTEX
8
Layer 1
10
31.446219
20
3.651210
70
0
0
VERTEX
8
Layer 1
10
32.071693
20
3.775035
70
0
0
VERTEX
8
Layer 1
10
32.551117
20
4.146510
70
0
0
VERTEX
8
Layer 1
10
32.855917
20
4.768809
70
0
0
VERTEX
8
Layer 1
10
32.957517
20
5.619708
70
0
0
VERTEX
8
Layer 1
10
32.855917
20
6.467432
70
0
0
VERTEX
8
Layer 1
10
32.551117
20
7.080206
70
0
0
VERTEX
8
Layer 1
10
32.071693
20
7.461206
70
0
0
VERTEX
8
Layer 1
10
31.446219
20
7.588205
70
0
0
VERTEX
8
Layer 1
10
30.820745
20
7.461206
70
0
0
VERTEX
8
Layer 1
10
30.341320
20
7.080206
70
0
0
VERTEX
8
Layer 1
10
30.036520
20
6.467432
70
0
0
VERTEX
8
Layer 1
10
29.934921
20
5.619708
70
0
0
VERTEX
8
Layer 1
10
30.036520
20
4.768809
70
0
0
VERTEX
8
Layer 1
10
30.341320
20
4.146510
70
0
0
VERTEX
8
Layer 1
10
30.820745
20
3.775035
70
0
0
VERTEX
8
Layer 1
10
31.446219
20
3.651210
70
0
0
VERTEX
8
Layer 1
10
31.446219
20
3.651210
70
0
0
SEQEND
8
Layer 1
0
POLYLINE
8
Layer 1
62
7
70
1
10
0.000000
20
0.000000
66
1
0
VERTEX
8
Layer 1
10
24.084911
20
2.457412
70
0
0
VERTEX
8
Layer 1
10
23.402287
20
2.549487
70
0
0
VERTEX
8
Layer 1
10
22.776813
20
2.825711
70
0
0
VERTEX
8
Layer 1
10
22.240238
20
3.279736
70
0
0
VERTEX
8
Layer 1
10
21.824314
20
3.905210
70
0
0
VERTEX
8
Layer 1
10
21.557614
20
4.689434
70
0
0
VERTEX
8
Layer 1
10
21.468714
20
5.619708
70
0
0
VERTEX
8
Layer 1
10
21.557614
20
6.549982
70
0
0
VERTEX
8
Layer 1
10
21.824314
20
7.334206
70
0
0
VERTEX
8
Layer 1
10
22.240238
20
7.959680
70
0
0
VERTEX
8
Layer 1
10
22.776813
20
8.413704
70
0
0
VERTEX
8
Layer 1
10
23.402287
20
8.689929
70
0
0
VERTEX
8
Layer 1
10
24.084911
20
8.782004
70
0
0
VERTEX
8
Layer 1
10
25.024710
20
8.604204
70
0
0
VERTEX
8
Layer 1
10
25.723209
20
8.134305
70
0
0
VERTEX
8
Layer 1
10
25.723209
20
11.906200
70
0
0
VERTEX
8
Layer 1
10
27.120287
20
11.906200
70
0
0
VERTEX
8
Layer 1
10
27.120287
20
2.635212
70
0
0
VERTEX
8
Layer 1
10
25.926409
20
2.635212
70
0
0
VERTEX
8
Layer 1
10
25.824809
20
3.295611
70
0
0
VERTEX
8
Layer 1
10
25.075510
20
2.673312
70
0
0
VERTEX
8
Layer 1
10
24.084911
20
2.457412
70
0
0
VERTEX
8
Layer 1
10
24.084911
20
2.457412
70
0
0
SEQEND
8
Layer 1
0
POLYLINE
8
Layer 1
62
7
70
1
10
0.000000
20
0.000000
66
1
0
VERTEX
8
Layer 1
10
24.440511
20
3.651210
70
0
0
VERTEX
8
Layer 1
10
25.142185
20
3.832185
70
0
0
VERTEX
8
Layer 1
10
25.723209
20
4.375109
70
0
0
VERTEX
8
Layer 1
10
25.723209
20
6.864306
70
0
0
VERTEX
8
Layer 1
10
25.148535
20
7.407231
70
0
0
VERTEX
8
Layer 1
10
24.440511
20
7.588205
70
0
0
VERTEX
8
Layer 1
10
23.824561
20
7.458031
70
0
0
VERTEX
8
Layer 1
10
23.322912
20
7.067506
70
0
0
VERTEX
8
Layer 1
10
22.989537
20
6.451557
70
0
0
VERTEX
8
Layer 1
10
22.878413
20
5.619708
70
0
0
VERTEX
8
Layer 1
10
22.989537
20
4.784684
70
0
0
VERTEX
8
Layer 1
10
23.322912
20
4.159210
70
0
0
VERTEX
8
Layer 1
10
23.824561
20
3.778210
70
0
0
VERTEX
8
Layer 1
10
24.440511
20
3.651210
70
0
0
VERTEX
8
Layer 1
10
24.440511
20
3.651210
70
0
0
SEQEND
8
Layer 1
0
POLYLINE
8
Layer 1
62
7
70
1
10
0.000000
20
0.000000
66
1
0
VERTEX
8
Layer 1
10
17.790296
20
2.457412
70
0
0
VERTEX
8
Layer 1
10
16.786998
20
2.673312
70
0
0
VERTEX
8
Layer 1
10
16.037699
20
3.295611
70
0
0
VERTEX
8
Layer 1
10
15.948799
20
2.635212
70
0
0
VERTEX
8
Layer 1
10
14.742300
20
2.635212
70
0
0
VERTEX
8
Layer 1
10
14.742300
20
11.906200
70
0
0
VERTEX
8
Layer 1
10
16.139298
20
11.906200
70
0
0
VERTEX
8
Layer 1
10
16.139298
20
8.134305
70
0
0
VERTEX
8
Layer 1
10
16.863198
20
8.620079
70
0
0
VERTEX
8
Layer 1
10
17.790296
20
8.782004
70
0
0
VERTEX
8
Layer 1
10
18.472920
20
8.689929
70
0
0
VERTEX
8
Layer 1
10
19.098395
20
8.413704
70
0
0
VERTEX
8
Layer 1
10
19.634969
20
7.959680
70
0
0
VERTEX
8
Layer 1
10
20.050893
20
7.334206
70
0
0
VERTEX
8
Layer 1
10
20.317593
20
6.549982
70
0
0
VERTEX
8
Layer 1
10
20.406493
20
5.619708
70
0
0
VERTEX
8
Layer 1
10
20.317593
20
4.689434
70
0
0
VERTEX
8
Layer 1
10
20.050893
20
3.905210
70
0
0
VERTEX
8
Layer 1
10
19.634969
20
3.279736
70
0
0
VERTEX
8
Layer 1
10
19.098395
20
2.825711
70
0
0
VERTEX
8
Layer 1
10
18.472920
20
2.549487
70
0
0
VERTEX
8
Layer 1
10
17.790296
20
2.457412
70
0
0
VERTEX
8
Layer 1
10
17.790296
20
2.457412
70
0
0
SEQEND
8
Layer 1
0
POLYLINE
8
Layer 1
62
7
70
1
10
0.000000
20
0.000000
66
1
0
VERTEX
8
Layer 1
10
17.434697
20
3.651210
70
0
0
VERTEX
8
Layer 1
10
18.041121
20
3.778210
70
0
0
VERTEX
8
Layer 1
10
18.539595
20
4.159210
70
0
0
VERTEX
8
Layer 1
10
18.882495
20
4.784684
70
0
0
VERTEX
8
Layer 1
10
18.996795
20
5.619708
70
0
0
VERTEX
8
Layer 1
10
18.882495
20
6.451557
70
0
0
VERTEX
8
Layer 1
10
18.539595
20
7.067506
70
0
0
VERTEX
8
Layer 1
10
18.041121
20
7.458031
70
0
0
VERTEX
8
Layer 1
10
17.434697
20
7.588205
70
0
0
VERTEX
8
Layer 1
10
16.717148
20
7.407231
70
0
0
VERTEX
8
Layer 1
10
16.139298
20
6.864306
70
0
0
VERTEX
8
Layer 1
10
16.139298
20
4.375109
70
0
0
VERTEX
8
Layer 1
10
16.723498
20
3.832185
70
0
0
VERTEX
8
Layer 1
10
17.434697
20
3.651210
70
0
0
VERTEX
8
Layer 1
10
17.434697
20
3.651210
70
0
0
SEQEND
8
Layer 1
0
POLYLINE
8
Layer 1
62
7
70
1
10
0.000000
20
0.000000
66
1
0
VERTEX
8
Layer 1
10
8.858054
20
0.095215
70
0
0
VERTEX
8
Layer 1
10
7.892855
20
0.273015
70
0
0
VERTEX
8
Layer 1
10
7.892855
20
1.479513
70
0
0
VERTEX
8
Layer 1
10
8.680254
20
1.289013
70
0
0
VERTEX
8
Layer 1
10
9.089828
20
1.358863
70
0
0
VERTEX
8
Layer 1
10
9.404153
20
1.568413
70
0
0
VERTEX
8
Layer 1
10
9.899452
20
2.444712
70
0
0
VERTEX
8
Layer 1
10
10.102652
20
2.978111
70
0
0
VERTEX
8
Layer 1
10
7.918255
20
8.604204
70
0
0
VERTEX
8
Layer 1
10
9.378753
20
8.604204
70
0
0
VERTEX
8
Layer 1
10
10.763051
20
4.743409
70
0
0
VERTEX
8
Layer 1
10
12.236249
20
8.604204
70
0
0
VERTEX
8
Layer 1
10
13.658648
20
8.604204
70
0
0
VERTEX
8
Layer 1
10
10.915451
20
1.784313
70
0
0
VERTEX
8
Layer 1
10
10.547152
20
1.073114
70
0
0
VERTEX
8
Layer 1
10
10.077252
20
0.539714
70
0
0
VERTEX
8
Layer 1
10
9.518453
20
0.206340
70
0
0
VERTEX
8
Layer 1
10
8.858054
20
0.095215
70
0
0
VERTEX
8
Layer 1
10
8.858054
20
0.095215
70
0
0
SEQEND
8
Layer 1
0
POLYLINE
8
Layer 1
62
7
70
1
10
0.000000
20
0.000000
66
1
0
VERTEX
8
Layer 1
10
3.975095
20
2.457412
70
0
0
VERTEX
8
Layer 1
10
2.901946
20
2.590762
70
0
0
VERTEX
8
Layer 1
10
1.943098
20
2.990811
70
0
0
VERTEX
8
Layer 1
10
1.136649
20
3.648035
70
0
0
VERTEX
8
Layer 1
10
0.520699
20
4.552909
70
0
0
VERTEX
8
Layer 1
10
0.130175
20
5.683208
70
0
0
VERTEX
8
Layer 1
10
0.000000
20
7.016706
70
0
0
VERTEX
8
Layer 1
10
0.130175
20
8.331154
70
0
0
VERTEX
8
Layer 1
10
0.520699
20
9.455100
70
0
0
VERTEX
8
Layer 1
10
1.136649
20
10.369499
70
0
0
VERTEX
8
Layer 1
10
1.943098
20
11.029898
70
0
0
VERTEX
8
Layer 1
10
2.905121
20
11.439473
70
0
0
VERTEX
8
Layer 1
10
3.987795
20
11.575998
70
0
0
VERTEX
8
Layer 1
10
5.060944
20
11.455348
70
0
0
VERTEX
8
Layer 1
10
5.968992
20
11.093398
70
0
0
VERTEX
8
Layer 1
10
6.715117
20
10.493324
70
0
0
VERTEX
8
Layer 1
10
7.277091
20
9.658300
70
0
0
VERTEX
8
Layer 1
10
6.146792
20
8.807404
70
0
0
VERTEX
8
Layer 1
10
5.756268
20
9.413826
70
0
0
VERTEX
8
Layer 1
10
5.245093
20
9.861500
70
0
0
VERTEX
8
Layer 1
10
4.645019
20
10.137725
70
0
0
VERTEX
8
Layer 1
10
3.987795
20
10.229799
70
0
0
VERTEX
8
Layer 1
10
3.311521
20
10.134550
70
0
0
VERTEX
8
Layer 1
10
2.705097
20
9.848800
70
0
0
VERTEX
8
Layer 1
10
2.193922
20
9.388427
70
0
0
VERTEX
8
Layer 1
10
1.803398
20
8.743904
70
0
0
VERTEX
8
Layer 1
10
1.565273
20
7.950155
70
0
0
VERTEX
8
Layer 1
10
1.485898
20
7.016706
70
0
0
VERTEX
8
Layer 1
10
1.565273
20
6.108657
70
0
0
VERTEX
8
Layer 1
10
1.803398
20
5.314908
70
0
0
VERTEX
8
Layer 1
10
2.181222
20
4.673559
70
0
0
VERTEX
8
Layer 1
10
2.679697
20
4.197310
70
0
0
VERTEX
8
Layer 1
10
3.289296
20
3.902035
70
0
0
VERTEX
8
Layer 1
10
3.975095
20
3.803610
70
0
0
VERTEX
8
Layer 1
10
4.657719
20
3.895685
70
0
0
VERTEX
8
Layer 1
10
5.257793
20
4.171910
70
0
0
VERTEX
8
Layer 1
10
5.759443
20
4.619584
70
0
0
VERTEX
8
Layer 1
10
6.146792
20
5.226008
70
0
0
VERTEX
8
Layer 1
10
7.277091
20
4.375109
70
0
0
VERTEX
8
Layer 1
10
6.705592
20
3.546436
70
0
0
VERTEX
8
Layer 1
10
5.956292
20
2.940011
70
0
0
VERTEX
8
Layer 1
10
5.041894
20
2.578062
70
0
0
VERTEX
8
Layer 1
10
3.975095
20
2.457412
70
0
0
VERTEX
8
Layer 1
10
3.975095
20
2.457412
70
0
0
SEQEND
8
Layer 1
 0 
ENDSEC
 0 
EOF