<svg width="74" height="43" viewBox="0 0 74 43" fill="none" xmlns="http://www.w3.org/2000/svg">
<path d="M55.3305 42.72C53.9225 42.72 52.7065 42.496 51.6825 42.048V37.488C52.7705 37.968 53.7625 38.208 54.6585 38.208C55.8105 38.208 56.7225 37.856 57.3945 37.152C58.0665 36.448 58.6905 35.344 59.2665 33.84L60.0345 31.824L51.7785 10.56H57.2985L62.5305 25.152L68.0985 10.56H73.4745L63.1065 36.336C62.3065 38.352 61.2505 39.92 59.9385 41.04C58.6585 42.16 57.1225 42.72 55.3305 42.72Z" fill="black"/>
<path d="M39.3713 33.792C37.0673 33.792 35.0513 33.312 33.3233 32.352C31.5953 31.392 30.2513 30.016 29.2913 28.224C28.3633 26.432 27.8993 24.304 27.8993 21.84C27.8993 19.376 28.3793 17.248 29.3393 15.456C30.2993 13.632 31.5953 12.256 33.2273 11.328C34.8913 10.368 36.7313 9.888 38.7473 9.888C42.0433 9.888 44.5713 10.928 46.3313 13.008C48.0913 15.056 48.9713 17.808 48.9713 21.264C48.9713 21.68 48.9393 22.336 48.8753 23.232H33.1313C33.3873 25.184 34.0593 26.72 35.1473 27.84C36.2673 28.928 37.7233 29.472 39.5153 29.472C40.7633 29.472 41.8673 29.232 42.8273 28.752C43.7873 28.24 44.6673 27.504 45.4673 26.544L48.5393 29.808C47.3873 31.152 46.0913 32.16 44.6513 32.832C43.2113 33.472 41.4513 33.792 39.3713 33.792ZM44.1713 19.392C44.0433 17.632 43.4993 16.32 42.5393 15.456C41.5793 14.592 40.2993 14.16 38.6993 14.16C37.2273 14.16 36.0113 14.624 35.0513 15.552C34.1233 16.448 33.5153 17.728 33.2273 19.392H44.1713Z" fill="black"/>
<path d="M0 33.12V0H5.568V14.256L18.864 0H25.92L14.16 12.768C16.656 15.68 18.88 18.88 20.832 22.368C22.784 25.856 24.368 29.44 25.584 33.12H19.2C18.368 30.208 17.2 27.344 15.696 24.528C14.224 21.712 12.496 19.104 10.512 16.704L5.568 22.08V33.12H0Z" fill="black"/>
</svg>
