999
"DXF R12 Output" (www.mydxf.blogspot.com)
 0 
SECTION
 2 
HEADER
 9 
$ACADVER
 1 
AC1009
 9 
$EXTMIN
 10 
 0 
 20 
 0 
 9 
$EXTMAX
 10 
 8.5 
 20 
 11 
 0 
ENDSEC
 0 
SECTION
 2 
ENTITIES
0
POLYLINE
8
Layer 1
62
7
70
1
10
0.000000
20
0.000000
66
1
0
VERTEX
8
Layer 1
10
14.639510
20
0.074114
70
0
0
VERTEX
8
Layer 1
10
13.674311
20
0.251914
70
0
0
VERTEX
8
Layer 1
10
13.674311
20
1.458412
70
0
0
VERTEX
8
Layer 1
10
14.461710
20
1.267913
70
0
0
VERTEX
8
Layer 1
10
14.871284
20
1.337763
70
0
0
VERTEX
8
Layer 1
10
15.185609
20
1.547312
70
0
0
VERTEX
8
Layer 1
10
15.680908
20
2.423611
70
0
0
VERTEX
8
Layer 1
10
15.884108
20
2.957011
70
0
0
VERTEX
8
Layer 1
10
13.699711
20
8.583104
70
0
0
VERTEX
8
Layer 1
10
15.160209
20
8.583104
70
0
0
VERTEX
8
Layer 1
10
16.544507
20
4.722308
70
0
0
VERTEX
8
Layer 1
10
18.017705
20
8.583104
70
0
0
VERTEX
8
Layer 1
10
19.440104
20
8.583104
70
0
0
VERTEX
8
Layer 1
10
16.696907
20
1.763212
70
0
0
VERTEX
8
Layer 1
10
16.328608
20
1.052013
70
0
0
VERTEX
8
Layer 1
10
15.858708
20
0.518614
70
0
0
VERTEX
8
Layer 1
10
15.299909
20
0.185239
70
0
0
VERTEX
8
Layer 1
10
14.639510
20
0.074114
70
0
0
VERTEX
8
Layer 1
10
14.639510
20
0.074114
70
0
0
SEQEND
8
Layer 1
0
POLYLINE
8
Layer 1
62
7
70
1
10
0.000000
20
0.000000
66
1
0
VERTEX
8
Layer 1
10
10.416977
20
2.436311
70
0
0
VERTEX
8
Layer 1
10
9.559728
20
2.531561
70
0
0
VERTEX
8
Layer 1
10
8.816779
20
2.817311
70
0
0
VERTEX
8
Layer 1
10
8.207179
20
3.280860
70
0
0
VERTEX
8
Layer 1
10
7.749980
20
3.909509
70
0
0
VERTEX
8
Layer 1
10
7.473755
20
4.687383
70
0
0
VERTEX
8
Layer 1
10
7.381680
20
5.598607
70
0
0
VERTEX
8
Layer 1
10
7.476930
20
6.509831
70
0
0
VERTEX
8
Layer 1
10
7.762680
20
7.287705
70
0
0
VERTEX
8
Layer 1
10
8.210354
20
7.922704
70
0
0
VERTEX
8
Layer 1
10
8.791379
20
8.379904
70
0
0
VERTEX
8
Layer 1
10
9.486703
20
8.665653
70
0
0
VERTEX
8
Layer 1
10
10.251877
20
8.760903
70
0
0
VERTEX
8
Layer 1
10
11.407575
20
8.554529
70
0
0
VERTEX
8
Layer 1
10
12.258474
20
7.935404
70
0
0
VERTEX
8
Layer 1
10
12.782349
20
6.982906
70
0
0
VERTEX
8
Layer 1
10
12.956973
20
5.751007
70
0
0
VERTEX
8
Layer 1
10
12.931573
20
5.230308
70
0
0
VERTEX
8
Layer 1
10
8.765979
20
5.230308
70
0
0
VERTEX
8
Layer 1
10
8.950129
20
4.538159
70
0
0
VERTEX
8
Layer 1
10
9.299378
20
4.011109
70
0
0
VERTEX
8
Layer 1
10
9.810552
20
3.687260
70
0
0
VERTEX
8
Layer 1
10
10.455077
20
3.579310
70
0
0
VERTEX
8
Layer 1
10
11.331376
20
3.769810
70
0
0
VERTEX
8
Layer 1
10
12.029875
20
4.354009
70
0
0
VERTEX
8
Layer 1
10
12.842674
20
3.490410
70
0
0
VERTEX
8
Layer 1
10
11.813975
20
2.690311
70
0
0
VERTEX
8
Layer 1
10
10.416977
20
2.436311
70
0
0
VERTEX
8
Layer 1
10
10.416977
20
2.436311
70
0
0
SEQEND
8
Layer 1
0
POLYLINE
8
Layer 1
62
7
70
1
10
0.000000
20
0.000000
66
1
0
VERTEX
8
Layer 1
10
11.686975
20
6.246306
70
0
0
VERTEX
8
Layer 1
10
11.553625
20
6.855906
70
0
0
VERTEX
8
Layer 1
10
11.255176
20
7.287705
70
0
0
VERTEX
8
Layer 1
10
10.810676
20
7.544880
70
0
0
VERTEX
8
Layer 1
10
10.239177
20
7.630605
70
0
0
VERTEX
8
Layer 1
10
9.705778
20
7.538530
70
0
0
VERTEX
8
Layer 1
10
9.273978
20
7.262305
70
0
0
VERTEX
8
Layer 1
10
8.969178
20
6.830506
70
0
0
VERTEX
8
Layer 1
10
8.791379
20
6.246306
70
0
0
VERTEX
8
Layer 1
10
11.686975
20
6.246306
70
0
0
VERTEX
8
Layer 1
10
11.686975
20
6.246306
70
0
0
SEQEND
8
Layer 1
0
POLYLINE
8
Layer 1
62
7
70
1
10
0.000000
20
0.000000
66
1
0
VERTEX
8
Layer 1
10
0.000000
20
2.614111
70
0
0
VERTEX
8
Layer 1
10
0.000000
20
11.377100
70
0
0
VERTEX
8
Layer 1
10
1.473198
20
11.377100
70
0
0
VERTEX
8
Layer 1
10
1.473198
20
7.605205
70
0
0
VERTEX
8
Layer 1
10
4.991094
20
11.377100
70
0
0
VERTEX
8
Layer 1
10
6.857991
20
11.377100
70
0
0
VERTEX
8
Layer 1
10
3.746495
20
7.998904
70
0
0
VERTEX
8
Layer 1
10
4.683119
20
6.786056
70
0
0
VERTEX
8
Layer 1
10
5.511793
20
5.458907
70
0
0
VERTEX
8
Layer 1
10
6.769091
20
2.614111
70
0
0
VERTEX
8
Layer 1
10
5.079994
20
2.614111
70
0
0
VERTEX
8
Layer 1
10
4.152895
20
4.887408
70
0
0
VERTEX
8
Layer 1
10
2.781296
20
6.957506
70
0
0
VERTEX
8
Layer 1
10
1.473198
20
5.535107
70
0
0
VERTEX
8
Layer 1
10
1.473198
20
2.614111
70
0
0
VERTEX
8
Layer 1
10
0.000000
20
2.614111
70
0
0
VERTEX
8
Layer 1
10
0.000000
20
2.614111
70
0
0
SEQEND
8
Layer 1
 0 
ENDSEC
 0 
EOF