%TF.GenerationSoftware,KiCad,Pcbnew,9.0.6*%
%TF.CreationDate,2026-04-21T18:05:16+10:00*%
%TF.ProjectId,cybdokey,63796264-6f6b-4657-992e-6b696361645f,rev?*%
%TF.SameCoordinates,Original*%
%TF.FileFunction,Paste,Top*%
%TF.FilePolarity,Positive*%
%FSLAX46Y46*%
G04 Gerber Fmt 4.6, Leading zero omitted, Abs format (unit mm)*
G04 Created by KiCad (PCBNEW 9.0.6) date 2026-04-21 18:05:16*
%MOMM*%
%LPD*%
G01*
G04 APERTURE LIST*
G04 Aperture macros list*
%AMRoundRect*
0 Rectangle with rounded corners*
0 $1 Rounding radius*
0 $2 $3 $4 $5 $6 $7 $8 $9 X,Y pos of 4 corners*
0 Add a 4 corners polygon primitive as box body*
4,1,4,$2,$3,$4,$5,$6,$7,$8,$9,$2,$3,0*
0 Add four circle primitives for the rounded corners*
1,1,$1+$1,$2,$3*
1,1,$1+$1,$4,$5*
1,1,$1+$1,$6,$7*
1,1,$1+$1,$8,$9*
0 Add four rect primitives between the rounded corners*
20,1,$1+$1,$2,$3,$4,$5,0*
20,1,$1+$1,$4,$5,$6,$7,0*
20,1,$1+$1,$6,$7,$8,$9,0*
20,1,$1+$1,$8,$9,$2,$3,0*%
%AMFreePoly0*
4,1,18,-0.437500,0.050000,-0.433694,0.069134,-0.422855,0.085355,-0.406634,0.096194,-0.387500,0.100000,0.387500,0.100000,0.437500,0.050000,0.437500,-0.050000,0.433694,-0.069134,0.422855,-0.085355,0.406634,-0.096194,0.387500,-0.100000,-0.387500,-0.100000,-0.406634,-0.096194,-0.422855,-0.085355,-0.433694,-0.069134,-0.437500,-0.050000,-0.437500,0.050000,-0.437500,0.050000,$1*%
%AMFreePoly1*
4,1,18,-0.437500,0.050000,-0.433694,0.069134,-0.422855,0.085355,-0.406634,0.096194,-0.387500,0.100000,0.387500,0.100000,0.406634,0.096194,0.422855,0.085355,0.433694,0.069134,0.437500,0.050000,0.437500,-0.050000,0.387500,-0.100000,-0.387500,-0.100000,-0.406634,-0.096194,-0.422855,-0.085355,-0.433694,-0.069134,-0.437500,-0.050000,-0.437500,0.050000,-0.437500,0.050000,$1*%
%AMFreePoly2*
4,1,18,-0.100000,0.387500,-0.050000,0.437500,0.050000,0.437500,0.069134,0.433694,0.085355,0.422855,0.096194,0.406634,0.100000,0.387500,0.100000,-0.387500,0.096194,-0.406634,0.085355,-0.422855,0.069134,-0.433694,0.050000,-0.437500,-0.050000,-0.437500,-0.069134,-0.433694,-0.085355,-0.422855,-0.096194,-0.406634,-0.100000,-0.387500,-0.100000,0.387500,-0.100000,0.387500,$1*%
%AMFreePoly3*
4,1,18,-0.100000,0.387500,-0.096194,0.406634,-0.085355,0.422855,-0.069134,0.433694,-0.050000,0.437500,0.050000,0.437500,0.100000,0.387500,0.100000,-0.387500,0.096194,-0.406634,0.085355,-0.422855,0.069134,-0.433694,0.050000,-0.437500,-0.050000,-0.437500,-0.069134,-0.433694,-0.085355,-0.422855,-0.096194,-0.406634,-0.100000,-0.387500,-0.100000,0.387500,-0.100000,0.387500,$1*%
%AMFreePoly4*
4,1,18,-0.437500,0.050000,-0.433694,0.069134,-0.422855,0.085355,-0.406634,0.096194,-0.387500,0.100000,0.387500,0.100000,0.406634,0.096194,0.422855,0.085355,0.433694,0.069134,0.437500,0.050000,0.437500,-0.050000,0.433694,-0.069134,0.422855,-0.085355,0.406634,-0.096194,0.387500,-0.100000,-0.387500,-0.100000,-0.437500,-0.050000,-0.437500,0.050000,-0.437500,0.050000,$1*%
%AMFreePoly5*
4,1,18,-0.437500,0.050000,-0.387500,0.100000,0.387500,0.100000,0.406634,0.096194,0.422855,0.085355,0.433694,0.069134,0.437500,0.050000,0.437500,-0.050000,0.433694,-0.069134,0.422855,-0.085355,0.406634,-0.096194,0.387500,-0.100000,-0.387500,-0.100000,-0.406634,-0.096194,-0.422855,-0.085355,-0.433694,-0.069134,-0.437500,-0.050000,-0.437500,0.050000,-0.437500,0.050000,$1*%
%AMFreePoly6*
4,1,18,-0.100000,0.387500,-0.096194,0.406634,-0.085355,0.422855,-0.069134,0.433694,-0.050000,0.437500,0.050000,0.437500,0.069134,0.433694,0.085355,0.422855,0.096194,0.406634,0.100000,0.387500,0.100000,-0.387500,0.050000,-0.437500,-0.050000,-0.437500,-0.069134,-0.433694,-0.085355,-0.422855,-0.096194,-0.406634,-0.100000,-0.387500,-0.100000,0.387500,-0.100000,0.387500,$1*%
%AMFreePoly7*
4,1,18,-0.100000,0.387500,-0.096194,0.406634,-0.085355,0.422855,-0.069134,0.433694,-0.050000,0.437500,0.050000,0.437500,0.069134,0.433694,0.085355,0.422855,0.096194,0.406634,0.100000,0.387500,0.100000,-0.387500,0.096194,-0.406634,0.085355,-0.422855,0.069134,-0.433694,0.050000,-0.437500,-0.050000,-0.437500,-0.100000,-0.387500,-0.100000,0.387500,-0.100000,0.387500,$1*%
G04 Aperture macros list end*
%ADD10RoundRect,0.155000X-0.155000X0.212500X-0.155000X-0.212500X0.155000X-0.212500X0.155000X0.212500X0*%
%ADD11RoundRect,0.125000X0.125000X-0.125000X0.125000X0.125000X-0.125000X0.125000X-0.125000X-0.125000X0*%
%ADD12RoundRect,0.160000X0.160000X-0.197500X0.160000X0.197500X-0.160000X0.197500X-0.160000X-0.197500X0*%
%ADD13RoundRect,0.155000X0.155000X-0.212500X0.155000X0.212500X-0.155000X0.212500X-0.155000X-0.212500X0*%
%ADD14RoundRect,0.160000X-0.160000X0.197500X-0.160000X-0.197500X0.160000X-0.197500X0.160000X0.197500X0*%
%ADD15RoundRect,0.250000X0.350000X-0.450000X0.350000X0.450000X-0.350000X0.450000X-0.350000X-0.450000X0*%
%ADD16RoundRect,0.160000X0.197500X0.160000X-0.197500X0.160000X-0.197500X-0.160000X0.197500X-0.160000X0*%
%ADD17RoundRect,0.160000X-0.197500X-0.160000X0.197500X-0.160000X0.197500X0.160000X-0.197500X0.160000X0*%
%ADD18R,1.400000X0.800000*%
%ADD19RoundRect,0.155000X-0.212500X-0.155000X0.212500X-0.155000X0.212500X0.155000X-0.212500X0.155000X0*%
%ADD20RoundRect,0.250000X-0.350000X-0.350000X0.350000X-0.350000X0.350000X0.350000X-0.350000X0.350000X0*%
%ADD21FreePoly0,0.000000*%
%ADD22RoundRect,0.050000X-0.387500X-0.050000X0.387500X-0.050000X0.387500X0.050000X-0.387500X0.050000X0*%
%ADD23FreePoly1,0.000000*%
%ADD24FreePoly2,0.000000*%
%ADD25RoundRect,0.050000X-0.050000X-0.387500X0.050000X-0.387500X0.050000X0.387500X-0.050000X0.387500X0*%
%ADD26FreePoly3,0.000000*%
%ADD27FreePoly4,0.000000*%
%ADD28FreePoly5,0.000000*%
%ADD29FreePoly6,0.000000*%
%ADD30FreePoly7,0.000000*%
%ADD31RoundRect,0.155000X0.212500X0.155000X-0.212500X0.155000X-0.212500X-0.155000X0.212500X-0.155000X0*%
%ADD32R,0.970000X0.900000*%
%ADD33RoundRect,0.093750X-0.093750X0.156250X-0.093750X-0.156250X0.093750X-0.156250X0.093750X0.156250X0*%
%ADD34RoundRect,0.075000X-0.075000X0.250000X-0.075000X-0.250000X0.075000X-0.250000X0.075000X0.250000X0*%
%ADD35RoundRect,0.150000X-0.150000X0.587500X-0.150000X-0.587500X0.150000X-0.587500X0.150000X0.587500X0*%
G04 APERTURE END LIST*
D10*
%TO.C,C7*%
X220510000Y-63085000D03*
X220510000Y-64220000D03*
%TD*%
D11*
%TO.C,D1*%
X214840000Y-58387500D03*
X214840000Y-56187500D03*
%TD*%
D12*
%TO.C,R6*%
X218590000Y-73615000D03*
X218590000Y-72420000D03*
%TD*%
D13*
%TO.C,C18*%
X213920000Y-75767500D03*
X213920000Y-74632500D03*
%TD*%
D10*
%TO.C,C19*%
X218600000Y-74725000D03*
X218600000Y-75860000D03*
%TD*%
D13*
%TO.C,C6*%
X214800000Y-62100000D03*
X214800000Y-60965000D03*
%TD*%
D12*
%TO.C,R2*%
X213070000Y-60505000D03*
X213070000Y-59310000D03*
%TD*%
D10*
%TO.C,C8*%
X211240000Y-68540000D03*
X211240000Y-69675000D03*
%TD*%
D12*
%TO.C,R7*%
X210920000Y-79157500D03*
X210920000Y-77962500D03*
%TD*%
D14*
%TO.C,R3*%
X221010000Y-60465000D03*
X221010000Y-61660000D03*
%TD*%
D13*
%TO.C,C2*%
X217280000Y-57350000D03*
X217280000Y-56215000D03*
%TD*%
D15*
%TO.C,Y1*%
X217150000Y-75135000D03*
X217150000Y-72935000D03*
X215450000Y-72935000D03*
X215450000Y-75135000D03*
%TD*%
D16*
%TO.C,R4*%
X212407500Y-76160000D03*
X211212500Y-76160000D03*
%TD*%
D17*
%TO.C,R5*%
X212340000Y-62190000D03*
X213535000Y-62190000D03*
%TD*%
D18*
%TO.C,D3*%
X213504200Y-81762900D03*
X218704200Y-81762900D03*
X218704200Y-80322900D03*
X213504200Y-80322900D03*
%TD*%
D13*
%TO.C,C5*%
X220030000Y-61650000D03*
X220030000Y-60515000D03*
%TD*%
D19*
%TO.C,C16*%
X218650000Y-71445000D03*
X219785000Y-71445000D03*
%TD*%
D13*
%TO.C,C3*%
X217530000Y-61590000D03*
X217530000Y-60455000D03*
%TD*%
D10*
%TO.C,C12*%
X220500000Y-67555000D03*
X220500000Y-68690000D03*
%TD*%
D13*
%TO.C,C1*%
X216310000Y-57350000D03*
X216310000Y-56215000D03*
%TD*%
D10*
%TO.C,C10*%
X213920000Y-72392500D03*
X213920000Y-73527500D03*
%TD*%
D13*
%TO.C,C17*%
X220510000Y-66465000D03*
X220510000Y-65330000D03*
%TD*%
D20*
%TO.C,U1*%
X215180000Y-66157500D03*
X215180000Y-67557500D03*
X216580000Y-66157500D03*
X216580000Y-67557500D03*
D21*
X212442500Y-64057500D03*
D22*
X212442500Y-64457500D03*
X212442500Y-64857500D03*
X212442500Y-65257500D03*
X212442500Y-65657500D03*
X212442500Y-66057500D03*
X212442500Y-66457500D03*
X212442500Y-66857500D03*
X212442500Y-67257500D03*
X212442500Y-67657500D03*
X212442500Y-68057500D03*
X212442500Y-68457500D03*
X212442500Y-68857500D03*
X212442500Y-69257500D03*
D23*
X212442500Y-69657500D03*
D24*
X213080000Y-70295000D03*
D25*
X213480000Y-70295000D03*
X213880000Y-70295000D03*
X214280000Y-70295000D03*
X214680000Y-70295000D03*
X215080000Y-70295000D03*
X215480000Y-70295000D03*
X215880000Y-70295000D03*
X216280000Y-70295000D03*
X216680000Y-70295000D03*
X217080000Y-70295000D03*
X217480000Y-70295000D03*
X217880000Y-70295000D03*
X218280000Y-70295000D03*
D26*
X218680000Y-70295000D03*
D27*
X219317500Y-69657500D03*
D22*
X219317500Y-69257500D03*
X219317500Y-68857500D03*
X219317500Y-68457500D03*
X219317500Y-68057500D03*
X219317500Y-67657500D03*
X219317500Y-67257500D03*
X219317500Y-66857500D03*
X219317500Y-66457500D03*
X219317500Y-66057500D03*
X219317500Y-65657500D03*
X219317500Y-65257500D03*
X219317500Y-64857500D03*
X219317500Y-64457500D03*
D28*
X219317500Y-64057500D03*
D29*
X218680000Y-63420000D03*
D25*
X218280000Y-63420000D03*
X217880000Y-63420000D03*
X217480000Y-63420000D03*
X217080000Y-63420000D03*
X216680000Y-63420000D03*
X216280000Y-63420000D03*
X215880000Y-63420000D03*
X215480000Y-63420000D03*
X215080000Y-63420000D03*
X214680000Y-63420000D03*
X214280000Y-63420000D03*
X213880000Y-63420000D03*
X213480000Y-63420000D03*
D30*
X213080000Y-63420000D03*
%TD*%
D12*
%TO.C,R1*%
X212050000Y-60500000D03*
X212050000Y-59305000D03*
%TD*%
D10*
%TO.C,C11*%
X211240000Y-64055000D03*
X211240000Y-65190000D03*
%TD*%
D31*
%TO.C,C4*%
X217490000Y-59350000D03*
X216355000Y-59350000D03*
%TD*%
D32*
%TO.C,L1*%
X218810000Y-59410000D03*
X218810000Y-60980000D03*
%TD*%
D10*
%TO.C,C15*%
X211240000Y-66295000D03*
X211240000Y-67430000D03*
%TD*%
D33*
%TO.C,U3*%
X213117500Y-56355000D03*
D34*
X212580000Y-56280000D03*
D33*
X212042500Y-56355000D03*
X212042500Y-58055000D03*
D34*
X212580000Y-58130000D03*
D33*
X213117500Y-58055000D03*
%TD*%
D17*
%TO.C,R9*%
X215506700Y-78500000D03*
X216701700Y-78500000D03*
%TD*%
D35*
%TO.C,U2*%
X221080000Y-56812500D03*
X219180000Y-56812500D03*
X220130000Y-58687500D03*
%TD*%
D10*
%TO.C,C9*%
X220970000Y-70440000D03*
X220970000Y-71575000D03*
%TD*%
D16*
%TO.C,R8*%
X216701700Y-77480000D03*
X215506700Y-77480000D03*
%TD*%
M02*
