M48
; DRILL file {KiCad 9.0.6} date 2026-04-21T18:05:20+1000
; FORMAT={-:-/ absolute / metric / decimal}
; #@! TF.CreationDate,2026-04-21T18:05:20+10:00
; #@! TF.GenerationSoftware,Kicad,Pcbnew,9.0.6
; #@! TF.FileFunction,Plated,1,2,PTH
FMAT,2
METRIC
; #@! TA.AperFunction,Plated,PTH,ComponentDrill
T1C0.250
; #@! TA.AperFunction,Plated,PTH,ViaDrill
T2C0.300
%
G90
G05
T1
X214.505Y-65.483
X214.505Y-66.858
X214.505Y-68.233
X215.88Y-65.483
X215.88Y-66.858
X215.88Y-68.233
X217.255Y-65.483
X217.255Y-66.858
X217.255Y-68.233
T2
X210.8Y-71.34
X210.83Y-70.46
X210.93Y-76.98
X211.03Y-57.28
X211.3Y-79.83
X211.441Y-63.058
X211.6Y-61.564
X211.687Y-53.797
X212.24Y-53.23
X212.24Y-63.1
X212.319Y-70.668
X212.6Y-77.0
X212.793Y-52.663
X212.885Y-71.234
X213.12Y-73.19
X213.12Y-75.26
X213.347Y-52.097
X213.364Y-65.441
X213.397Y-76.927
X213.401Y-69.358
X213.8Y-71.4
X214.883Y-53.81
X214.98Y-50.48
X215.22Y-74.14
X215.437Y-53.243
X215.99Y-52.677
X216.08Y-58.44
X216.47Y-64.457
X216.543Y-52.11
X216.969Y-60.862
X216.98Y-50.48
X217.09Y-69.474
X217.363Y-73.93
X217.98Y-53.81
X218.33Y-64.457
X218.5Y-51.7
X218.533Y-53.243
X219.0Y-51.2
X219.01Y-62.23
X219.087Y-52.677
X219.4Y-75.4
X219.48Y-72.36
X219.6Y-74.2
X219.64Y-52.11
X219.75Y-50.95
X220.028Y-59.925
X220.18Y-70.44
X220.21Y-55.577
X220.21Y-56.33
X220.211Y-57.419
X220.32Y-69.38
X220.42Y-71.575
X220.51Y-64.8
X221.2Y-62.53
X221.2Y-67.06
X221.2Y-76.29
M30
