%TF.GenerationSoftware,KiCad,Pcbnew,9.0.6*%
%TF.CreationDate,2026-04-21T18:05:16+10:00*%
%TF.ProjectId,cybdokey,63796264-6f6b-4657-992e-6b696361645f,rev?*%
%TF.SameCoordinates,Original*%
%TF.FileFunction,Legend,Bot*%
%TF.FilePolarity,Positive*%
%FSLAX46Y46*%
G04 Gerber Fmt 4.6, Leading zero omitted, Abs format (unit mm)*
G04 Created by KiCad (PCBNEW 9.0.6) date 2026-04-21 18:05:16*
%MOMM*%
%LPD*%
G01*
G04 APERTURE LIST*
%ADD10C,0.000000*%
G04 APERTURE END LIST*
D10*
%TO.C,REF\u002A\u002A*%
G36*
X217945667Y-58513802D02*
G01*
X218222527Y-57741642D01*
X218514627Y-57741642D01*
X218077747Y-58866862D01*
X218118387Y-58973542D01*
X218124132Y-58988216D01*
X218129936Y-59002395D01*
X218135800Y-59016077D01*
X218141723Y-59029263D01*
X218147706Y-59041953D01*
X218153749Y-59054147D01*
X218159851Y-59065845D01*
X218166012Y-59077047D01*
X218172233Y-59087753D01*
X218178514Y-59097962D01*
X218184854Y-59107676D01*
X218191253Y-59116893D01*
X218197713Y-59125614D01*
X218204231Y-59133840D01*
X218210809Y-59141569D01*
X218217447Y-59148802D01*
X218224263Y-59155569D01*
X218231377Y-59161899D01*
X218238789Y-59167792D01*
X218246498Y-59173249D01*
X218254505Y-59178270D01*
X218262810Y-59182854D01*
X218271412Y-59187001D01*
X218280312Y-59190712D01*
X218289510Y-59193986D01*
X218299005Y-59196824D01*
X218308798Y-59199225D01*
X218318888Y-59201189D01*
X218329277Y-59202717D01*
X218339962Y-59203809D01*
X218350946Y-59204464D01*
X218362227Y-59204682D01*
X218371177Y-59204533D01*
X218380245Y-59204086D01*
X218389433Y-59203342D01*
X218398740Y-59202301D01*
X218408165Y-59200961D01*
X218417710Y-59199324D01*
X218427374Y-59197389D01*
X218437157Y-59195157D01*
X218447059Y-59192627D01*
X218457080Y-59189799D01*
X218467220Y-59186674D01*
X218477480Y-59183251D01*
X218487858Y-59179530D01*
X218498355Y-59175512D01*
X218508972Y-59171196D01*
X218519707Y-59166582D01*
X218519707Y-59407882D01*
X218509428Y-59412188D01*
X218498911Y-59416216D01*
X218488155Y-59419967D01*
X218477162Y-59423439D01*
X218465930Y-59426634D01*
X218454461Y-59429551D01*
X218442753Y-59432190D01*
X218430807Y-59434552D01*
X218418623Y-59436635D01*
X218406201Y-59438441D01*
X218393541Y-59439969D01*
X218380642Y-59441219D01*
X218367506Y-59442192D01*
X218354131Y-59442886D01*
X218340518Y-59443303D01*
X218326667Y-59443442D01*
X218309046Y-59443095D01*
X218291742Y-59442053D01*
X218274756Y-59440316D01*
X218258087Y-59437886D01*
X218241736Y-59434760D01*
X218225702Y-59430940D01*
X218209986Y-59426426D01*
X218194587Y-59421217D01*
X218179506Y-59415313D01*
X218164742Y-59408715D01*
X218150296Y-59401423D01*
X218136167Y-59393436D01*
X218122356Y-59384754D01*
X218108862Y-59375378D01*
X218095686Y-59365307D01*
X218082827Y-59354542D01*
X218069968Y-59343152D01*
X218057427Y-59331206D01*
X218045203Y-59318704D01*
X218033297Y-59305647D01*
X218021708Y-59292034D01*
X218010437Y-59277866D01*
X217999483Y-59263142D01*
X217988847Y-59247862D01*
X217978528Y-59232027D01*
X217968527Y-59215636D01*
X217958843Y-59198689D01*
X217949477Y-59181187D01*
X217940429Y-59163129D01*
X217931697Y-59144516D01*
X217923284Y-59125347D01*
X217915187Y-59105622D01*
X217366547Y-57741642D01*
X217651027Y-57741642D01*
X217945667Y-58513802D01*
G37*
G36*
X217149816Y-58935442D02*
G01*
X216908516Y-58935442D01*
X216890736Y-58803362D01*
X216883007Y-58813075D01*
X216875060Y-58822531D01*
X216866894Y-58831729D01*
X216858510Y-58840668D01*
X216849908Y-58849350D01*
X216841087Y-58857773D01*
X216832049Y-58865939D01*
X216822791Y-58873847D01*
X216813316Y-58881497D01*
X216803622Y-58888888D01*
X216793710Y-58896022D01*
X216783580Y-58902898D01*
X216773232Y-58909516D01*
X216762665Y-58915876D01*
X216751880Y-58921978D01*
X216740876Y-58927822D01*
X216729675Y-58933051D01*
X216718294Y-58937942D01*
X216706735Y-58942496D01*
X216694998Y-58946713D01*
X216683081Y-58950593D01*
X216670987Y-58954135D01*
X216658713Y-58957339D01*
X216646261Y-58960207D01*
X216633631Y-58962737D01*
X216620822Y-58964930D01*
X216607834Y-58966785D01*
X216594668Y-58968303D01*
X216581323Y-58969484D01*
X216567799Y-58970327D01*
X216554097Y-58970833D01*
X216540216Y-58971002D01*
X216522526Y-58970714D01*
X216505014Y-58969851D01*
X216487680Y-58968412D01*
X216470525Y-58966398D01*
X216453549Y-58963809D01*
X216436751Y-58960644D01*
X216420132Y-58956903D01*
X216403691Y-58952587D01*
X216387430Y-58947696D01*
X216371346Y-58942229D01*
X216355441Y-58936186D01*
X216339715Y-58929568D01*
X216324168Y-58922375D01*
X216308799Y-58914606D01*
X216293608Y-58906262D01*
X216278597Y-58897342D01*
X216263863Y-58887867D01*
X216249506Y-58877855D01*
X216235526Y-58867308D01*
X216221923Y-58856226D01*
X216208697Y-58844607D01*
X216195848Y-58832453D01*
X216183376Y-58819763D01*
X216171282Y-58806537D01*
X216159564Y-58792775D01*
X216148223Y-58778478D01*
X216137260Y-58763645D01*
X216126673Y-58748276D01*
X216116463Y-58732371D01*
X216106631Y-58715930D01*
X216097175Y-58698954D01*
X216088097Y-58681442D01*
X216079484Y-58663434D01*
X216071428Y-58644969D01*
X216063927Y-58626048D01*
X216056982Y-58606671D01*
X216050592Y-58586837D01*
X216044758Y-58566547D01*
X216039479Y-58545800D01*
X216034757Y-58524597D01*
X216030589Y-58502937D01*
X216026978Y-58480822D01*
X216023922Y-58458249D01*
X216021422Y-58435221D01*
X216019477Y-58411736D01*
X216018088Y-58387794D01*
X216017254Y-58363396D01*
X216016977Y-58338542D01*
X216298916Y-58338542D01*
X216299273Y-58361709D01*
X216300345Y-58384222D01*
X216302131Y-58406080D01*
X216304631Y-58427283D01*
X216307846Y-58447831D01*
X216311775Y-58467725D01*
X216316419Y-58486963D01*
X216321776Y-58505547D01*
X216327849Y-58523476D01*
X216334635Y-58540750D01*
X216342136Y-58557369D01*
X216350351Y-58573333D01*
X216359281Y-58588643D01*
X216368925Y-58603297D01*
X216379284Y-58617297D01*
X216390356Y-58630642D01*
X216401638Y-58642945D01*
X216413256Y-58654454D01*
X216425212Y-58665170D01*
X216437505Y-58675092D01*
X216450136Y-58684220D01*
X216463104Y-58692554D01*
X216476409Y-58700095D01*
X216490051Y-58706842D01*
X216504031Y-58712795D01*
X216518349Y-58717954D01*
X216533003Y-58722320D01*
X216547995Y-58725892D01*
X216563325Y-58728670D01*
X216578991Y-58730655D01*
X216594995Y-58731845D01*
X216611337Y-58732242D01*
X216630506Y-58731676D01*
X216649278Y-58729980D01*
X216667653Y-58727152D01*
X216685631Y-58723193D01*
X216703213Y-58718103D01*
X216720398Y-58711882D01*
X216737185Y-58704530D01*
X216753576Y-58696047D01*
X216769570Y-58686433D01*
X216785168Y-58675687D01*
X216800368Y-58663811D01*
X216815171Y-58650803D01*
X216829578Y-58636665D01*
X216843588Y-58621395D01*
X216857200Y-58604994D01*
X216870416Y-58587462D01*
X216870416Y-58089622D01*
X216857498Y-58072090D01*
X216844143Y-58055689D01*
X216830352Y-58040419D01*
X216816124Y-58026281D01*
X216801459Y-58013273D01*
X216786358Y-58001397D01*
X216770821Y-57990651D01*
X216754847Y-57981037D01*
X216738436Y-57972554D01*
X216721588Y-57965202D01*
X216704304Y-57958981D01*
X216686584Y-57953891D01*
X216668427Y-57949932D01*
X216649833Y-57947104D01*
X216630803Y-57945408D01*
X216611337Y-57944842D01*
X216594995Y-57945249D01*
X216578991Y-57946469D01*
X216563325Y-57948503D01*
X216547995Y-57951351D01*
X216533003Y-57955012D01*
X216518349Y-57959487D01*
X216504031Y-57964775D01*
X216490051Y-57970877D01*
X216476409Y-57977792D01*
X216463104Y-57985522D01*
X216450136Y-57994064D01*
X216437505Y-58003421D01*
X216425212Y-58013591D01*
X216413256Y-58024574D01*
X216401638Y-58036371D01*
X216390356Y-58048982D01*
X216379284Y-58062019D01*
X216368925Y-58075731D01*
X216359281Y-58090118D01*
X216350351Y-58105179D01*
X216342136Y-58120916D01*
X216334635Y-58137326D01*
X216327849Y-58154412D01*
X216321776Y-58172172D01*
X216316419Y-58190607D01*
X216311775Y-58209716D01*
X216307846Y-58229501D01*
X216304631Y-58249959D01*
X216302131Y-58271093D01*
X216300345Y-58292901D01*
X216299273Y-58315384D01*
X216298916Y-58338542D01*
X216016977Y-58338542D01*
X216017254Y-58313688D01*
X216018088Y-58289290D01*
X216019477Y-58265348D01*
X216021422Y-58241863D01*
X216023922Y-58218835D01*
X216026978Y-58196262D01*
X216030589Y-58174146D01*
X216034757Y-58152487D01*
X216039479Y-58131284D01*
X216044758Y-58110537D01*
X216050592Y-58090247D01*
X216056982Y-58070413D01*
X216063927Y-58051036D01*
X216071428Y-58032115D01*
X216079484Y-58013650D01*
X216088097Y-57995642D01*
X216097175Y-57978130D01*
X216106631Y-57961154D01*
X216116463Y-57944713D01*
X216126673Y-57928808D01*
X216137260Y-57913439D01*
X216148223Y-57898606D01*
X216159564Y-57884309D01*
X216171282Y-57870547D01*
X216183376Y-57857321D01*
X216195848Y-57844631D01*
X216208697Y-57832477D01*
X216221923Y-57820858D01*
X216235526Y-57809775D01*
X216249506Y-57799229D01*
X216263863Y-57789217D01*
X216278597Y-57779742D01*
X216293608Y-57770822D01*
X216308799Y-57762478D01*
X216324168Y-57754709D01*
X216339715Y-57747516D01*
X216355441Y-57740898D01*
X216371346Y-57734855D01*
X216387430Y-57729388D01*
X216403691Y-57724497D01*
X216420132Y-57720181D01*
X216436751Y-57716440D01*
X216453549Y-57713275D01*
X216470525Y-57710686D01*
X216487680Y-57708672D01*
X216505014Y-57707233D01*
X216522526Y-57706370D01*
X216540216Y-57706082D01*
X216565616Y-57706588D01*
X216590381Y-57708106D01*
X216614511Y-57710636D01*
X216638006Y-57714178D01*
X216660866Y-57718732D01*
X216683091Y-57724298D01*
X216704681Y-57730877D01*
X216725636Y-57738467D01*
X216745956Y-57747069D01*
X216765641Y-57756684D01*
X216784691Y-57767310D01*
X216803106Y-57778948D01*
X216820886Y-57791599D01*
X216838031Y-57805261D01*
X216854541Y-57819935D01*
X216870416Y-57835622D01*
X216870416Y-57081242D01*
X217149816Y-57081242D01*
X217149816Y-58089622D01*
X217149816Y-58935442D01*
G37*
G36*
X215804254Y-58363396D02*
G01*
X215803421Y-58387794D01*
X215802032Y-58411736D01*
X215800087Y-58435221D01*
X215797587Y-58458249D01*
X215794531Y-58480822D01*
X215790919Y-58502937D01*
X215786752Y-58524597D01*
X215782029Y-58545800D01*
X215776751Y-58566547D01*
X215770917Y-58586837D01*
X215764527Y-58606671D01*
X215757582Y-58626048D01*
X215750081Y-58644969D01*
X215742024Y-58663434D01*
X215733412Y-58681442D01*
X215724333Y-58698954D01*
X215714878Y-58715930D01*
X215705045Y-58732371D01*
X215694836Y-58748276D01*
X215684249Y-58763645D01*
X215673285Y-58778478D01*
X215661945Y-58792775D01*
X215650227Y-58806537D01*
X215638132Y-58819763D01*
X215625660Y-58832453D01*
X215612811Y-58844607D01*
X215599586Y-58856226D01*
X215585983Y-58867308D01*
X215572003Y-58877855D01*
X215557646Y-58887867D01*
X215542912Y-58897342D01*
X215527900Y-58906262D01*
X215512710Y-58914606D01*
X215497341Y-58922375D01*
X215481793Y-58929568D01*
X215466067Y-58936186D01*
X215450162Y-58942229D01*
X215434079Y-58947696D01*
X215417817Y-58952587D01*
X215401376Y-58956903D01*
X215384757Y-58960644D01*
X215367959Y-58963809D01*
X215350983Y-58966398D01*
X215333828Y-58968412D01*
X215316495Y-58969851D01*
X215298983Y-58970714D01*
X215281292Y-58971002D01*
X215267421Y-58970833D01*
X215253749Y-58970327D01*
X215240275Y-58969484D01*
X215226999Y-58968303D01*
X215213922Y-58966785D01*
X215201044Y-58964930D01*
X215188364Y-58962737D01*
X215175882Y-58960207D01*
X215163599Y-58957339D01*
X215151514Y-58954135D01*
X215139627Y-58950593D01*
X215127940Y-58946713D01*
X215116450Y-58942496D01*
X215105159Y-58937942D01*
X215094066Y-58933051D01*
X215083172Y-58927822D01*
X215072169Y-58921978D01*
X215061384Y-58915876D01*
X215050817Y-58909516D01*
X215040468Y-58902898D01*
X215030338Y-58896022D01*
X215020426Y-58888888D01*
X215010732Y-58881497D01*
X215001257Y-58873847D01*
X214992000Y-58865939D01*
X214982961Y-58857773D01*
X214974141Y-58849350D01*
X214965538Y-58840668D01*
X214957154Y-58831729D01*
X214948989Y-58822531D01*
X214941041Y-58813075D01*
X214933312Y-58803362D01*
X214912992Y-58935442D01*
X214674216Y-58935442D01*
X214674216Y-58089622D01*
X214953632Y-58089622D01*
X214953632Y-58587462D01*
X214966838Y-58604994D01*
X214980421Y-58621395D01*
X214994381Y-58636665D01*
X215008718Y-58650803D01*
X215023432Y-58663811D01*
X215038524Y-58675687D01*
X215053992Y-58686433D01*
X215069837Y-58696047D01*
X215086059Y-58704530D01*
X215102659Y-58711882D01*
X215119635Y-58718103D01*
X215136988Y-58723193D01*
X215154719Y-58727152D01*
X215172826Y-58729980D01*
X215191310Y-58731676D01*
X215210172Y-58732242D01*
X215226821Y-58731845D01*
X215243113Y-58730655D01*
X215259047Y-58728670D01*
X215274625Y-58725892D01*
X215289845Y-58722320D01*
X215304708Y-58717954D01*
X215319213Y-58712795D01*
X215333362Y-58706842D01*
X215347153Y-58700095D01*
X215360588Y-58692554D01*
X215373665Y-58684220D01*
X215386385Y-58675092D01*
X215398747Y-58665170D01*
X215410753Y-58654454D01*
X215422401Y-58642945D01*
X215433692Y-58630642D01*
X215444457Y-58617297D01*
X215454528Y-58603297D01*
X215463904Y-58588643D01*
X215472586Y-58573333D01*
X215480573Y-58557369D01*
X215487865Y-58540750D01*
X215494463Y-58523476D01*
X215500367Y-58505547D01*
X215505576Y-58486963D01*
X215510090Y-58467725D01*
X215513910Y-58447831D01*
X215517036Y-58427283D01*
X215519466Y-58406080D01*
X215521203Y-58384222D01*
X215522245Y-58361709D01*
X215522592Y-58338542D01*
X215522245Y-58315384D01*
X215521203Y-58292901D01*
X215519466Y-58271093D01*
X215517036Y-58249959D01*
X215513910Y-58229501D01*
X215510090Y-58209716D01*
X215505576Y-58190607D01*
X215500367Y-58172172D01*
X215494463Y-58154412D01*
X215487865Y-58137326D01*
X215480573Y-58120916D01*
X215472586Y-58105179D01*
X215463904Y-58090118D01*
X215454528Y-58075731D01*
X215444457Y-58062019D01*
X215433692Y-58048982D01*
X215422401Y-58036371D01*
X215410753Y-58024574D01*
X215398747Y-58013591D01*
X215386385Y-58003421D01*
X215373665Y-57994064D01*
X215360588Y-57985522D01*
X215347153Y-57977792D01*
X215333362Y-57970877D01*
X215319213Y-57964775D01*
X215304708Y-57959487D01*
X215289845Y-57955012D01*
X215274625Y-57951351D01*
X215259047Y-57948503D01*
X215243113Y-57946469D01*
X215226821Y-57945249D01*
X215210172Y-57944842D01*
X215191013Y-57945408D01*
X215172270Y-57947104D01*
X215153945Y-57949932D01*
X215136036Y-57953891D01*
X215118543Y-57958981D01*
X215101468Y-57965202D01*
X215084809Y-57972554D01*
X215068567Y-57981037D01*
X215052741Y-57990651D01*
X215037333Y-58001397D01*
X215022341Y-58013273D01*
X215007766Y-58026281D01*
X214993607Y-58040419D01*
X214979865Y-58055689D01*
X214966540Y-58072090D01*
X214953632Y-58089622D01*
X214674216Y-58089622D01*
X214674216Y-57081242D01*
X214953632Y-57081242D01*
X214953632Y-57835622D01*
X214960726Y-57828111D01*
X214968039Y-57820819D01*
X214975569Y-57813744D01*
X214983318Y-57806888D01*
X214991285Y-57800250D01*
X214999471Y-57793831D01*
X215007875Y-57787630D01*
X215016497Y-57781647D01*
X215025337Y-57775882D01*
X215034396Y-57770336D01*
X215043673Y-57765008D01*
X215053168Y-57759898D01*
X215062882Y-57755007D01*
X215072814Y-57750334D01*
X215082964Y-57745879D01*
X215093332Y-57741642D01*
X215103889Y-57737336D01*
X215114604Y-57733308D01*
X215125479Y-57729557D01*
X215136512Y-57726084D01*
X215147704Y-57722890D01*
X215159054Y-57719973D01*
X215170564Y-57717333D01*
X215182232Y-57714972D01*
X215194059Y-57712888D01*
X215206044Y-57711083D01*
X215218189Y-57709555D01*
X215230492Y-57708304D01*
X215242954Y-57707332D01*
X215255574Y-57706638D01*
X215268354Y-57706221D01*
X215281292Y-57706082D01*
X215298983Y-57706370D01*
X215316495Y-57707233D01*
X215333828Y-57708672D01*
X215350983Y-57710686D01*
X215367959Y-57713275D01*
X215384757Y-57716440D01*
X215401376Y-57720181D01*
X215417817Y-57724497D01*
X215434079Y-57729388D01*
X215450162Y-57734855D01*
X215466067Y-57740898D01*
X215481793Y-57747516D01*
X215497341Y-57754709D01*
X215512710Y-57762478D01*
X215527900Y-57770822D01*
X215542912Y-57779742D01*
X215557646Y-57789217D01*
X215572003Y-57799229D01*
X215585983Y-57809775D01*
X215599586Y-57820858D01*
X215612811Y-57832477D01*
X215625660Y-57844631D01*
X215638132Y-57857321D01*
X215650227Y-57870547D01*
X215661945Y-57884309D01*
X215673285Y-57898606D01*
X215684249Y-57913439D01*
X215694836Y-57928808D01*
X215705045Y-57944713D01*
X215714878Y-57961154D01*
X215724333Y-57978130D01*
X215733412Y-57995642D01*
X215742024Y-58013650D01*
X215750081Y-58032115D01*
X215757582Y-58051036D01*
X215764527Y-58070413D01*
X215770917Y-58090247D01*
X215776751Y-58110537D01*
X215782029Y-58131284D01*
X215786752Y-58152487D01*
X215790919Y-58174146D01*
X215794531Y-58196262D01*
X215797587Y-58218835D01*
X215800087Y-58241863D01*
X215802032Y-58265348D01*
X215803421Y-58289290D01*
X215804254Y-58313688D01*
X215804532Y-58338542D01*
X215804254Y-58363396D01*
G37*
G36*
X214390391Y-58363396D02*
G01*
X214389498Y-58387794D01*
X214388010Y-58411736D01*
X214385926Y-58435221D01*
X214383247Y-58458249D01*
X214379973Y-58480822D01*
X214376104Y-58502937D01*
X214371639Y-58524597D01*
X214366579Y-58545800D01*
X214360923Y-58566547D01*
X214354672Y-58586837D01*
X214347826Y-58606671D01*
X214340385Y-58626048D01*
X214332348Y-58644969D01*
X214323716Y-58663434D01*
X214314489Y-58681442D01*
X214304438Y-58698954D01*
X214293970Y-58715930D01*
X214283086Y-58732371D01*
X214271785Y-58748276D01*
X214260067Y-58763645D01*
X214247933Y-58778478D01*
X214235381Y-58792775D01*
X214222414Y-58806537D01*
X214209029Y-58819763D01*
X214195228Y-58832453D01*
X214181010Y-58844607D01*
X214166375Y-58856226D01*
X214151323Y-58867308D01*
X214135855Y-58877855D01*
X214119970Y-58887867D01*
X214103669Y-58897342D01*
X214087040Y-58906262D01*
X214070172Y-58914606D01*
X214053067Y-58922375D01*
X214035724Y-58929568D01*
X214018142Y-58936186D01*
X214000322Y-58942229D01*
X213982265Y-58947696D01*
X213963969Y-58952587D01*
X213945435Y-58956903D01*
X213926662Y-58960644D01*
X213907652Y-58963809D01*
X213888404Y-58966398D01*
X213868917Y-58968412D01*
X213849192Y-58969851D01*
X213829230Y-58970714D01*
X213809029Y-58971002D01*
X213788828Y-58970714D01*
X213768865Y-58969851D01*
X213749140Y-58968412D01*
X213729654Y-58966398D01*
X213710405Y-58963809D01*
X213691395Y-58960644D01*
X213672623Y-58956903D01*
X213654089Y-58952587D01*
X213635793Y-58947696D01*
X213617735Y-58942229D01*
X213599915Y-58936186D01*
X213582334Y-58929568D01*
X213564990Y-58922375D01*
X213547885Y-58914606D01*
X213531018Y-58906262D01*
X213514389Y-58897342D01*
X213498097Y-58887867D01*
X213482242Y-58877855D01*
X213466823Y-58867308D01*
X213451841Y-58856226D01*
X213437296Y-58844607D01*
X213423187Y-58832453D01*
X213409515Y-58819763D01*
X213396279Y-58806537D01*
X213383480Y-58792775D01*
X213371117Y-58778478D01*
X213359191Y-58763645D01*
X213347701Y-58748276D01*
X213336648Y-58732371D01*
X213326032Y-58715930D01*
X213315852Y-58698954D01*
X213306109Y-58681442D01*
X213296574Y-58663434D01*
X213287654Y-58644969D01*
X213279349Y-58626048D01*
X213271660Y-58606671D01*
X213264586Y-58586837D01*
X213258127Y-58566547D01*
X213252283Y-58545800D01*
X213247054Y-58524597D01*
X213242440Y-58502937D01*
X213238442Y-58480822D01*
X213235059Y-58458249D01*
X213232290Y-58435221D01*
X213230137Y-58411736D01*
X213228600Y-58387794D01*
X213227677Y-58363396D01*
X213227369Y-58338542D01*
X213506768Y-58338542D01*
X213507086Y-58362315D01*
X213508038Y-58385373D01*
X213509626Y-58407717D01*
X213511848Y-58429347D01*
X213514706Y-58450262D01*
X213518199Y-58470463D01*
X213522326Y-58489950D01*
X213527089Y-58508722D01*
X213532486Y-58526780D01*
X213538519Y-58544123D01*
X213545186Y-58560752D01*
X213552489Y-58576667D01*
X213560426Y-58591867D01*
X213568999Y-58606353D01*
X213578206Y-58620125D01*
X213588049Y-58633182D01*
X213598437Y-58645177D01*
X213609282Y-58656399D01*
X213620583Y-58666847D01*
X213632340Y-58676521D01*
X213644554Y-58685421D01*
X213657224Y-58693547D01*
X213670351Y-58700899D01*
X213683934Y-58707477D01*
X213697973Y-58713281D01*
X213712469Y-58718312D01*
X213727421Y-58722568D01*
X213742830Y-58726051D01*
X213758695Y-58728759D01*
X213775017Y-58730694D01*
X213791794Y-58731855D01*
X213809029Y-58732242D01*
X213826263Y-58731855D01*
X213843041Y-58730694D01*
X213859362Y-58728759D01*
X213875227Y-58726051D01*
X213890636Y-58722568D01*
X213905588Y-58718312D01*
X213920084Y-58713281D01*
X213934124Y-58707477D01*
X213947707Y-58700899D01*
X213960833Y-58693547D01*
X213973504Y-58685421D01*
X213985717Y-58676521D01*
X213997475Y-58666847D01*
X214008776Y-58656399D01*
X214019620Y-58645177D01*
X214030008Y-58633182D01*
X214039851Y-58620125D01*
X214049058Y-58606353D01*
X214057631Y-58591867D01*
X214065569Y-58576667D01*
X214072871Y-58560752D01*
X214079539Y-58544123D01*
X214085571Y-58526780D01*
X214090969Y-58508722D01*
X214095731Y-58489950D01*
X214099859Y-58470463D01*
X214103351Y-58450262D01*
X214106209Y-58429347D01*
X214108431Y-58407717D01*
X214110019Y-58385373D01*
X214110971Y-58362315D01*
X214111288Y-58338542D01*
X214110971Y-58314779D01*
X214110019Y-58291750D01*
X214108431Y-58269456D01*
X214106209Y-58247896D01*
X214103351Y-58227070D01*
X214099859Y-58206978D01*
X214095731Y-58187620D01*
X214090969Y-58168997D01*
X214085571Y-58151108D01*
X214079539Y-58133953D01*
X214072871Y-58117532D01*
X214065569Y-58101846D01*
X214057631Y-58086893D01*
X214049058Y-58072675D01*
X214039851Y-58059192D01*
X214030008Y-58046442D01*
X214019620Y-58034139D01*
X214008776Y-58022629D01*
X213997475Y-58011914D01*
X213985717Y-58001992D01*
X213973504Y-57992864D01*
X213960833Y-57984529D01*
X213947707Y-57976989D01*
X213934124Y-57970242D01*
X213920084Y-57964289D01*
X213905588Y-57959129D01*
X213890636Y-57954764D01*
X213875227Y-57951192D01*
X213859362Y-57948414D01*
X213843041Y-57946429D01*
X213826263Y-57945239D01*
X213809029Y-57944842D01*
X213791794Y-57945239D01*
X213775017Y-57946429D01*
X213758695Y-57948414D01*
X213742830Y-57951192D01*
X213727421Y-57954764D01*
X213712469Y-57959129D01*
X213697973Y-57964289D01*
X213683934Y-57970242D01*
X213670351Y-57976989D01*
X213657224Y-57984529D01*
X213644554Y-57992864D01*
X213632340Y-58001992D01*
X213620583Y-58011914D01*
X213609282Y-58022629D01*
X213598437Y-58034139D01*
X213588049Y-58046442D01*
X213578206Y-58059192D01*
X213568999Y-58072675D01*
X213560426Y-58086893D01*
X213552489Y-58101846D01*
X213545186Y-58117532D01*
X213538519Y-58133953D01*
X213532486Y-58151108D01*
X213527089Y-58168997D01*
X213522326Y-58187620D01*
X213518199Y-58206978D01*
X213514706Y-58227070D01*
X213511848Y-58247896D01*
X213509626Y-58269456D01*
X213508038Y-58291750D01*
X213507086Y-58314779D01*
X213506768Y-58338542D01*
X213227369Y-58338542D01*
X213227677Y-58313688D01*
X213228600Y-58289290D01*
X213230137Y-58265348D01*
X213232290Y-58241863D01*
X213235059Y-58218835D01*
X213238442Y-58196262D01*
X213242440Y-58174146D01*
X213247054Y-58152487D01*
X213252283Y-58131284D01*
X213258127Y-58110537D01*
X213264586Y-58090247D01*
X213271660Y-58070413D01*
X213279349Y-58051036D01*
X213287654Y-58032115D01*
X213296574Y-58013650D01*
X213306109Y-57995642D01*
X213315852Y-57978130D01*
X213326032Y-57961154D01*
X213336648Y-57944713D01*
X213347701Y-57928808D01*
X213359191Y-57913439D01*
X213371117Y-57898606D01*
X213383480Y-57884309D01*
X213396279Y-57870547D01*
X213409515Y-57857321D01*
X213423187Y-57844631D01*
X213437296Y-57832477D01*
X213451841Y-57820858D01*
X213466823Y-57809775D01*
X213482242Y-57799229D01*
X213498097Y-57789217D01*
X213514389Y-57779742D01*
X213531018Y-57770822D01*
X213547885Y-57762478D01*
X213564990Y-57754709D01*
X213582334Y-57747516D01*
X213599915Y-57740898D01*
X213617735Y-57734855D01*
X213635793Y-57729388D01*
X213654089Y-57724497D01*
X213672623Y-57720181D01*
X213691395Y-57716440D01*
X213710405Y-57713275D01*
X213729654Y-57710686D01*
X213749140Y-57708672D01*
X213768865Y-57707233D01*
X213788828Y-57706370D01*
X213809029Y-57706082D01*
X213829230Y-57706370D01*
X213849192Y-57707233D01*
X213868917Y-57708672D01*
X213888404Y-57710686D01*
X213907652Y-57713275D01*
X213926662Y-57716440D01*
X213945435Y-57720181D01*
X213963969Y-57724497D01*
X213982265Y-57729388D01*
X214000322Y-57734855D01*
X214018142Y-57740898D01*
X214035724Y-57747516D01*
X214053067Y-57754709D01*
X214070172Y-57762478D01*
X214087040Y-57770822D01*
X214103669Y-57779742D01*
X214119970Y-57789217D01*
X214135855Y-57799229D01*
X214151323Y-57809775D01*
X214166375Y-57820858D01*
X214181010Y-57832477D01*
X214195228Y-57844631D01*
X214209029Y-57857321D01*
X214222414Y-57870547D01*
X214235381Y-57884309D01*
X214247933Y-57898606D01*
X214260067Y-57913439D01*
X214271785Y-57928808D01*
X214283086Y-57944713D01*
X214293970Y-57961154D01*
X214304438Y-57978130D01*
X214314489Y-57995642D01*
X214323716Y-58013650D01*
X214332348Y-58032115D01*
X214340385Y-58051036D01*
X214347826Y-58070413D01*
X214354672Y-58090247D01*
X214360923Y-58110537D01*
X214366579Y-58131284D01*
X214371639Y-58152487D01*
X214376104Y-58174146D01*
X214379973Y-58196262D01*
X214383247Y-58218835D01*
X214385926Y-58241863D01*
X214388010Y-58265348D01*
X214389498Y-58289290D01*
X214390391Y-58313688D01*
X214390689Y-58338542D01*
X214390391Y-58363396D01*
G37*
G36*
X219329107Y-57147709D02*
G01*
X219357116Y-57148989D01*
X219384748Y-57151122D01*
X219412004Y-57154109D01*
X219438882Y-57157949D01*
X219465383Y-57162642D01*
X219491508Y-57168188D01*
X219517255Y-57174588D01*
X219542625Y-57181840D01*
X219567618Y-57189947D01*
X219592235Y-57198906D01*
X219616474Y-57208719D01*
X219640336Y-57219385D01*
X219663821Y-57230904D01*
X219686929Y-57243277D01*
X219709660Y-57256503D01*
X219731905Y-57270234D01*
X219753554Y-57284760D01*
X219774609Y-57300079D01*
X219795068Y-57316193D01*
X219814931Y-57333099D01*
X219834199Y-57350800D01*
X219852872Y-57369294D01*
X219870950Y-57388583D01*
X219888432Y-57408664D01*
X219905319Y-57429540D01*
X219921611Y-57451209D01*
X219937308Y-57473673D01*
X219952409Y-57496929D01*
X219966914Y-57520980D01*
X219980825Y-57545824D01*
X219994140Y-57571463D01*
X220006751Y-57597478D01*
X220018548Y-57624088D01*
X220029531Y-57651294D01*
X220039701Y-57679095D01*
X220049058Y-57707491D01*
X220057600Y-57736483D01*
X220065329Y-57766070D01*
X220072245Y-57796252D01*
X220078347Y-57827030D01*
X220083635Y-57858403D01*
X220088110Y-57890371D01*
X220091771Y-57922934D01*
X220094619Y-57956093D01*
X220096653Y-57989848D01*
X220097873Y-58024197D01*
X220098280Y-58059142D01*
X220097873Y-58094702D01*
X220096653Y-58129627D01*
X220094619Y-58163917D01*
X220091771Y-58197572D01*
X220088110Y-58230592D01*
X220083635Y-58262977D01*
X220078347Y-58294727D01*
X220072245Y-58325842D01*
X220065329Y-58356322D01*
X220057600Y-58386167D01*
X220049058Y-58415377D01*
X220039701Y-58443952D01*
X220029531Y-58471892D01*
X220018548Y-58499197D01*
X220006751Y-58525867D01*
X219994140Y-58551902D01*
X219980825Y-58577232D01*
X219966914Y-58601789D01*
X219952409Y-58625572D01*
X219937308Y-58648581D01*
X219921611Y-58670816D01*
X219905319Y-58692277D01*
X219888432Y-58712964D01*
X219870950Y-58732877D01*
X219852872Y-58752016D01*
X219834199Y-58770382D01*
X219814931Y-58787973D01*
X219795068Y-58804791D01*
X219774609Y-58820834D01*
X219753554Y-58836104D01*
X219731905Y-58850600D01*
X219709660Y-58864322D01*
X219686939Y-58877240D01*
X219663861Y-58889325D01*
X219640425Y-58900576D01*
X219616633Y-58910994D01*
X219592483Y-58920579D01*
X219567976Y-58929330D01*
X219543111Y-58937248D01*
X219517890Y-58944332D01*
X219492311Y-58950583D01*
X219466376Y-58956000D01*
X219440083Y-58960584D01*
X219413433Y-58964335D01*
X219386425Y-58967252D01*
X219359061Y-58969335D01*
X219331339Y-58970585D01*
X219303260Y-58971002D01*
X219274923Y-58970625D01*
X219247063Y-58969494D01*
X219219678Y-58967609D01*
X219192770Y-58964969D01*
X219166338Y-58961576D01*
X219140383Y-58957429D01*
X219114903Y-58952527D01*
X219089900Y-58946872D01*
X219065373Y-58940462D01*
X219041323Y-58933299D01*
X219017748Y-58925381D01*
X218994650Y-58916709D01*
X218972028Y-58907284D01*
X218949883Y-58897104D01*
X218928213Y-58886170D01*
X218907020Y-58874482D01*
X218886343Y-58861752D01*
X218866221Y-58848328D01*
X218846655Y-58834209D01*
X218827645Y-58819396D01*
X218809190Y-58803888D01*
X218791291Y-58787685D01*
X218773948Y-58770788D01*
X218757160Y-58753197D01*
X218740928Y-58734911D01*
X218725251Y-58715930D01*
X218710130Y-58696255D01*
X218695565Y-58675886D01*
X218681555Y-58654822D01*
X218668101Y-58633063D01*
X218655203Y-58610610D01*
X218642860Y-58587462D01*
X218868920Y-58417282D01*
X218877354Y-58434179D01*
X218886144Y-58450580D01*
X218895292Y-58466485D01*
X218904798Y-58481893D01*
X218914660Y-58496806D01*
X218924879Y-58511222D01*
X218935456Y-58525143D01*
X218946390Y-58538567D01*
X218957681Y-58551495D01*
X218969329Y-58563927D01*
X218981335Y-58575863D01*
X218993698Y-58587303D01*
X219006417Y-58598247D01*
X219019494Y-58608695D01*
X219032929Y-58618646D01*
X219046720Y-58628102D01*
X219060819Y-58637022D01*
X219075176Y-58645366D01*
X219089791Y-58653135D01*
X219104664Y-58660328D01*
X219119795Y-58666946D01*
X219135183Y-58672988D01*
X219150830Y-58678455D01*
X219166735Y-58683347D01*
X219182898Y-58687663D01*
X219199318Y-58691404D01*
X219215997Y-58694569D01*
X219232934Y-58697158D01*
X219250128Y-58699172D01*
X219267581Y-58700611D01*
X219285292Y-58701474D01*
X219303260Y-58701762D01*
X219321238Y-58701454D01*
X219338979Y-58700532D01*
X219356481Y-58698994D01*
X219373745Y-58696841D01*
X219390771Y-58694073D01*
X219407559Y-58690689D01*
X219424108Y-58686691D01*
X219440420Y-58682077D01*
X219456493Y-58676848D01*
X219472329Y-58671004D01*
X219487926Y-58664545D01*
X219503285Y-58657471D01*
X219518406Y-58649781D01*
X219533289Y-58641477D01*
X219547933Y-58632557D01*
X219562340Y-58623022D01*
X219576122Y-58612921D01*
X219589526Y-58602305D01*
X219602553Y-58591173D01*
X219615204Y-58579524D01*
X219627477Y-58567360D01*
X219639373Y-58554680D01*
X219650893Y-58541484D01*
X219662035Y-58527772D01*
X219672800Y-58513544D01*
X219683188Y-58498800D01*
X219693200Y-58483540D01*
X219702834Y-58467764D01*
X219712091Y-58451473D01*
X219720971Y-58434665D01*
X219729474Y-58417342D01*
X219737600Y-58399502D01*
X219745289Y-58380908D01*
X219752483Y-58361958D01*
X219759180Y-58342650D01*
X219765381Y-58322984D01*
X219771086Y-58302962D01*
X219776295Y-58282583D01*
X219781008Y-58261846D01*
X219785225Y-58240752D01*
X219788946Y-58219301D01*
X219792170Y-58197493D01*
X219794899Y-58175327D01*
X219797131Y-58152804D01*
X219798868Y-58129925D01*
X219800108Y-58106688D01*
X219800852Y-58083093D01*
X219801100Y-58059142D01*
X219800852Y-58034278D01*
X219800108Y-58009850D01*
X219798868Y-57985859D01*
X219797131Y-57962304D01*
X219794899Y-57939186D01*
X219792170Y-57916505D01*
X219788946Y-57894260D01*
X219785225Y-57872452D01*
X219781008Y-57851080D01*
X219776295Y-57830145D01*
X219771086Y-57809646D01*
X219765381Y-57789584D01*
X219759180Y-57769959D01*
X219752483Y-57750770D01*
X219745289Y-57732018D01*
X219737600Y-57713702D01*
X219729157Y-57695575D01*
X219720336Y-57678023D01*
X219711138Y-57661047D01*
X219701564Y-57644646D01*
X219691612Y-57628820D01*
X219681283Y-57613571D01*
X219670578Y-57598896D01*
X219659495Y-57584797D01*
X219648035Y-57571274D01*
X219636198Y-57558326D01*
X219623985Y-57545953D01*
X219611394Y-57534156D01*
X219598426Y-57522935D01*
X219585081Y-57512288D01*
X219571359Y-57502218D01*
X219557260Y-57492723D01*
X219542863Y-57483495D01*
X219528248Y-57474863D01*
X219513415Y-57466826D01*
X219498364Y-57459385D01*
X219483094Y-57452539D01*
X219467606Y-57446288D01*
X219451900Y-57440633D01*
X219435975Y-57435573D01*
X219419832Y-57431108D01*
X219403471Y-57427238D01*
X219386892Y-57423964D01*
X219370094Y-57421285D01*
X219353078Y-57419201D01*
X219335844Y-57417713D01*
X219318391Y-57416820D01*
X219300720Y-57416523D01*
X219283664Y-57416810D01*
X219266787Y-57417673D01*
X219250089Y-57419112D01*
X219233569Y-57421126D01*
X219217227Y-57423716D01*
X219201065Y-57426881D01*
X219185081Y-57430622D01*
X219169275Y-57434938D01*
X219153648Y-57439829D01*
X219138200Y-57445296D01*
X219122930Y-57451338D01*
X219107839Y-57457956D01*
X219092926Y-57465150D01*
X219078192Y-57472918D01*
X219063637Y-57481263D01*
X219049260Y-57490183D01*
X219035161Y-57499638D01*
X219021439Y-57509590D01*
X219008094Y-57520037D01*
X218995126Y-57530981D01*
X218982535Y-57542421D01*
X218970322Y-57554357D01*
X218958485Y-57566789D01*
X218947025Y-57579717D01*
X218935942Y-57593142D01*
X218925237Y-57607062D01*
X218914908Y-57621478D01*
X218904956Y-57636391D01*
X218895382Y-57651800D01*
X218886184Y-57667704D01*
X218877364Y-57684105D01*
X218868920Y-57701002D01*
X218642860Y-57530822D01*
X218654895Y-57507377D01*
X218667506Y-57484666D01*
X218680692Y-57462689D01*
X218694454Y-57441446D01*
X218708791Y-57420938D01*
X218723704Y-57401163D01*
X218739192Y-57382123D01*
X218755255Y-57363818D01*
X218771894Y-57346246D01*
X218789108Y-57329408D01*
X218806898Y-57313305D01*
X218825264Y-57297936D01*
X218844205Y-57283302D01*
X218863721Y-57269401D01*
X218883813Y-57256235D01*
X218904480Y-57243803D01*
X218925376Y-57232115D01*
X218946787Y-57221181D01*
X218968714Y-57211001D01*
X218991158Y-57201575D01*
X219014117Y-57192903D01*
X219037592Y-57184986D01*
X219061583Y-57177822D01*
X219086090Y-57171413D01*
X219111113Y-57165757D01*
X219136652Y-57160856D01*
X219162707Y-57156708D01*
X219189278Y-57153315D01*
X219216364Y-57150676D01*
X219243967Y-57148791D01*
X219272086Y-57147660D01*
X219300720Y-57147283D01*
X219329107Y-57147709D01*
G37*
%TD*%
M02*
