%TF.GenerationSoftware,KiCad,Pcbnew,9.0.6*%
%TF.CreationDate,2026-04-21T18:05:16+10:00*%
%TF.ProjectId,cybdokey,63796264-6f6b-4657-992e-6b696361645f,rev?*%
%TF.SameCoordinates,Original*%
%TF.FileFunction,Profile,NP*%
%FSLAX46Y46*%
G04 Gerber Fmt 4.6, Leading zero omitted, Abs format (unit mm)*
G04 Created by KiCad (PCBNEW 9.0.6) date 2026-04-21 18:05:16*
%MOMM*%
%LPD*%
G01*
G04 APERTURE LIST*
%TA.AperFunction,Profile*%
%ADD10C,0.050000*%
%TD*%
G04 APERTURE END LIST*
D10*
X214341421Y-86258579D02*
X211341421Y-83258579D01*
X210000000Y-86800000D02*
X210000000Y-55600000D01*
X211200000Y-86600000D02*
X214200000Y-86600000D01*
X211200000Y-86600000D02*
G75*
G02*
X211000000Y-86400000I0J200000D01*
G01*
X221100000Y-86458579D02*
X221100000Y-83458579D01*
X221100000Y-86458579D02*
G75*
G02*
X220900000Y-86658600I-200000J-21D01*
G01*
X217900000Y-86658579D02*
G75*
G02*
X217758604Y-86317183I0J199979D01*
G01*
X220758579Y-83317158D02*
X217758579Y-86317158D01*
X222000000Y-55600000D02*
X222000000Y-86800000D01*
X221200000Y-87600000D02*
X210800000Y-87600000D01*
X220758579Y-83317158D02*
G75*
G02*
X221100014Y-83458579I141421J-141442D01*
G01*
X211000000Y-86400000D02*
X211000000Y-83400000D01*
X222000000Y-86800000D02*
G75*
G02*
X221200000Y-87600000I-800000J0D01*
G01*
X211000000Y-83400000D02*
G75*
G02*
X211341421Y-83258579I200000J0D01*
G01*
X214341421Y-86258579D02*
G75*
G02*
X214200000Y-86599999I-141421J-141421D01*
G01*
X220900000Y-86658579D02*
X217900000Y-86658579D01*
X210800000Y-87600000D02*
G75*
G02*
X210000000Y-86800000I0J800000D01*
G01*
%TO.C,J1*%
X210000000Y-55600000D02*
X210000000Y-42400000D01*
X210800000Y-41600000D02*
X210000000Y-42400000D01*
X210800000Y-41600000D02*
X221200000Y-41600000D01*
X221200000Y-41600000D02*
X222000000Y-42400000D01*
X222000000Y-55600000D02*
X222000000Y-42400000D01*
%TD*%
M02*
