%TF.GenerationSoftware,KiCad,Pcbnew,9.0.6*%
%TF.CreationDate,2026-04-21T18:05:16+10:00*%
%TF.ProjectId,cybdokey,63796264-6f6b-4657-992e-6b696361645f,rev?*%
%TF.SameCoordinates,Original*%
%TF.FileFunction,Soldermask,Bot*%
%TF.FilePolarity,Negative*%
%FSLAX46Y46*%
G04 Gerber Fmt 4.6, Leading zero omitted, Abs format (unit mm)*
G04 Created by KiCad (PCBNEW 9.0.6) date 2026-04-21 18:05:16*
%MOMM*%
%LPD*%
G01*
G04 APERTURE LIST*
G04 Aperture macros list*
%AMRoundRect*
0 Rectangle with rounded corners*
0 $1 Rounding radius*
0 $2 $3 $4 $5 $6 $7 $8 $9 X,Y pos of 4 corners*
0 Add a 4 corners polygon primitive as box body*
4,1,4,$2,$3,$4,$5,$6,$7,$8,$9,$2,$3,0*
0 Add four circle primitives for the rounded corners*
1,1,$1+$1,$2,$3*
1,1,$1+$1,$4,$5*
1,1,$1+$1,$6,$7*
1,1,$1+$1,$8,$9*
0 Add four rect primitives between the rounded corners*
20,1,$1+$1,$2,$3,$4,$5,0*
20,1,$1+$1,$4,$5,$6,$7,0*
20,1,$1+$1,$6,$7,$8,$9,0*
20,1,$1+$1,$8,$9,$2,$3,0*%
%AMFreePoly0*
4,1,841,-1.161786,7.552529,-0.892599,7.534724,-0.624379,7.500630,-0.357939,7.450130,-0.094094,7.383103,0.166342,7.299430,0.422555,7.198992,0.673732,7.081669,0.919059,6.947341,1.157720,6.795890,1.388903,6.627196,1.611794,6.441139,1.825578,6.237600,2.029441,6.016459,2.134843,5.889051,2.236689,5.755127,2.334626,5.615256,2.428303,5.470009,2.517367,5.319956,2.601465,5.165668,
2.680246,5.007715,2.753356,4.846668,2.820444,4.683097,2.881157,4.517572,2.935143,4.350664,2.982049,4.182942,3.021523,4.014979,3.053213,3.847343,3.076766,3.680605,3.091829,3.515336,3.096139,3.417836,3.097156,3.319090,3.095911,3.219484,3.093435,3.119406,3.088911,2.919372,3.088925,2.820190,3.091829,2.722078,3.033308,2.323409,2.998783,2.150500,2.957461,1.980001,
2.909494,1.812062,2.855037,1.646832,2.794242,1.484458,2.727265,1.325091,2.575373,1.015971,2.400592,0.720662,2.204150,0.440357,1.987276,0.176246,1.751200,-0.070479,1.497150,-0.298627,1.226356,-0.507007,0.940046,-0.694426,0.639450,-0.859695,0.325797,-1.001621,0.164459,-1.063459,0.000316,-1.119014,-0.166475,-1.168137,-0.335763,-1.210681,-0.507394,-1.246495,-0.681213,-1.275431,
-1.092289,-1.321333,-1.576767,-1.321333,-1.863539,-1.297865,-2.143480,-1.256707,-2.416189,-1.198514,-2.681264,-1.123940,-2.938306,-1.033640,-3.186913,-0.928271,-3.426685,-0.808486,-3.657220,-0.674941,-3.878120,-0.528291,-4.088981,-0.369191,-4.289405,-0.198296,-4.478990,-0.016261,-4.657335,0.176259,-4.824040,0.378609,-4.978705,0.590133,-5.120927,0.810178,-5.250307,1.038087,-5.366444,1.273205,
-5.468938,1.514879,-5.557386,1.762452,-5.631390,2.015269,-5.690548,2.272676,-5.734459,2.534018,-5.762722,2.798639,-5.774938,3.065884,-5.772827,3.200160,-3.502141,3.200160,-3.500619,3.027789,-3.485635,2.856066,-3.457236,2.685886,-3.415472,2.518145,-3.360389,2.353738,-3.292036,2.193561,-3.210462,2.038509,-3.164732,1.963185,-3.115714,1.889479,-3.063415,1.817501,-3.007841,1.747365,
-2.986978,1.722283,-2.961880,1.692950,-2.933576,1.661472,-2.918543,1.645588,-2.903095,1.629959,-2.887359,1.614847,-2.871465,1.600517,-2.855541,1.587232,-2.839716,1.575256,-2.824118,1.564851,-2.816445,1.560321,-2.808876,1.556282,-2.801429,1.552768,-2.794119,1.549812,-2.786962,1.547447,-2.779974,1.545705,-2.779974,1.545702,-2.766300,1.543291,-2.752800,1.541703,-2.739497,1.540918,
-2.726411,1.540917,-2.713565,1.541679,-2.700980,1.543184,-2.688680,1.545413,-2.676684,1.548345,-2.665016,1.551960,-2.653698,1.556238,-2.642750,1.561158,-2.632196,1.566702,-2.622056,1.572849,-2.612354,1.579578,-2.603110,1.586870,-2.594346,1.594705,-2.586086,1.603063,-2.578350,1.611923,-2.571160,1.621266,-2.564538,1.631071,-2.558507,1.641318,-2.553088,1.651988,-2.548302,1.663061,
-2.544173,1.674515,-2.540721,1.686332,-2.537969,1.698490,-2.535939,1.710971,-2.534652,1.723754,-2.534130,1.736819,-2.534396,1.750145,-2.535471,1.763714,-2.537377,1.777504,-2.539046,1.785764,-2.541264,1.794010,-2.544001,1.802240,-2.547231,1.810450,-2.550923,1.818640,-2.555050,1.826805,-2.559584,1.834944,-2.564495,1.843055,-2.575336,1.859180,-2.587347,1.875161,-2.600300,1.890977,
-2.613966,1.906610,-2.628119,1.922039,-2.642530,1.937245,-2.671216,1.966909,-2.698203,1.995443,-2.710490,2.009237,-2.721669,2.022690,-2.806280,2.138545,-2.880570,2.259743,-2.944488,2.385584,-2.997982,2.515365,-3.041000,2.648385,-3.073490,2.783943,-3.095400,2.921336,-3.106678,3.059865,-3.106933,3.119476,-2.713622,3.119476,-2.710344,3.038482,-2.702444,2.957821,-2.689960,2.877747,
-2.672932,2.798517,-2.651400,2.720383,-2.625402,2.643603,-2.594979,2.568429,-2.560170,2.495117,-2.521013,2.423922,-2.477549,2.355098,-2.453753,2.321005,-2.424436,2.281806,-2.408060,2.261170,-2.390727,2.240310,-2.372577,2.219578,-2.353752,2.199326,-2.334393,2.179903,-2.314640,2.161661,-2.294635,2.144951,-2.274519,2.130124,-2.264462,2.123526,-2.254431,2.117531,-2.244442,2.112182,
-2.234514,2.107524,-2.224663,2.103599,-2.214908,2.100453,-2.205266,2.098128,-2.195754,2.096669,-2.195756,2.096668,-2.187895,2.095994,-2.180007,2.095650,-2.172104,2.095631,-2.164198,2.095932,-2.156301,2.096549,-2.148425,2.097478,-2.140581,2.098713,-2.132781,2.100249,-2.125037,2.102082,-2.117362,2.104208,-2.109767,2.106620,-2.102263,2.109316,-2.094863,2.112290,-2.087578,2.115537,
-2.080421,2.119052,-2.073403,2.122832,-2.066537,2.126871,-2.059833,2.131164,-2.053304,2.135707,-2.046962,2.140494,-2.040818,2.145523,-2.034885,2.150786,-2.029174,2.156281,-2.023697,2.162002,-2.018466,2.167944,-2.013493,2.174103,-2.008790,2.180474,-2.004368,2.187052,-2.000240,2.193833,-1.996417,2.200812,-1.992912,2.207984,-1.989735,2.215344,-1.984139,2.230517,-1.979760,2.245215,
-1.976547,2.259461,-1.974447,2.273279,-1.973407,2.286691,-1.973374,2.299721,-1.974296,2.312392,-1.976121,2.324727,-1.978795,2.336748,-1.982266,2.348479,-1.986482,2.359943,-1.991390,2.371164,-1.996937,2.382163,-2.003070,2.392964,-2.009738,2.403591,-2.016887,2.414066,-2.032420,2.434653,-2.049247,2.454910,-2.085101,2.495173,-2.103287,2.515547,-2.121085,2.536329,-2.138072,2.557704,
-2.153830,2.579856,-2.191258,2.640858,-2.223902,2.703707,-2.251764,2.768157,-2.274847,2.833963,-2.293155,2.900878,-2.306690,2.968658,-2.315456,3.037055,-2.319456,3.105825,-2.318962,3.150377,-1.928439,3.150377,-1.928079,3.105504,-1.924227,3.059962,-1.916756,3.013871,-1.905538,2.967351,-1.890445,2.920522,-1.877189,2.888285,-1.861010,2.856202,-1.842123,2.824496,-1.820741,2.793392,
-1.797077,2.763113,-1.771346,2.733884,-1.743760,2.705930,-1.714534,2.679473,-1.683881,2.654739,-1.652014,2.631951,-1.619147,2.611333,-1.585495,2.593111,-1.551269,2.577507,-1.516684,2.564746,-1.499324,2.559502,-1.481954,2.555052,-1.464601,2.551426,-1.447292,2.548650,-1.380160,2.542387,-1.316038,2.541981,-1.254985,2.547113,-1.197059,2.557463,-1.142320,2.572713,-1.090827,2.592545,
-1.042639,2.616639,-0.997814,2.644677,-0.956413,2.676339,-0.918493,2.711307,-0.884115,2.749262,-0.853336,2.789886,-0.826216,2.832859,-0.802815,2.877862,-0.783190,2.924578,-0.767402,2.972686,-0.755509,3.021869,-0.747569,3.071806,-0.743643,3.122181,-0.743790,3.172672,-0.748067,3.222963,-0.756535,3.272734,-0.769252,3.321666,-0.786277,3.369440,-0.807670,3.415738,-0.833489,3.460241,
-0.863793,3.502629,-0.898642,3.542585,-0.938095,3.579789,-0.982210,3.613922,-1.031046,3.644666,-1.084663,3.671702,-1.130335,3.690143,-1.175961,3.704682,-1.221413,3.715440,-1.266565,3.722535,-1.311288,3.726088,-1.355455,3.726218,-1.398937,3.723046,-1.441609,3.716690,-1.483341,3.707270,-1.524007,3.694907,-1.563478,3.679720,-1.601627,3.661829,-1.638327,3.641353,-1.673449,3.618412,
-1.706866,3.593126,-1.738451,3.565616,-1.768076,3.535999,-1.795613,3.504397,-1.820935,3.470929,-1.843913,3.435715,-1.864421,3.398874,-1.882331,3.360526,-1.897515,3.320791,-1.909845,3.279789,-1.919194,3.237640,-1.925435,3.194463,-1.928439,3.150377,-2.318962,3.150377,-2.318692,3.174721,-2.313167,3.243498,-2.302885,3.311910,-2.287849,3.379711,-2.268062,3.446655,-2.243526,3.512498,
-2.214245,3.576992,-2.180221,3.639892,-2.169454,3.656920,-2.156864,3.674709,-2.142781,3.693147,-2.127535,3.712121,-2.061528,3.791123,-2.045421,3.811086,-2.030131,3.830908,-2.015989,3.850476,-2.003325,3.869678,-1.992469,3.888402,-1.987822,3.897548,-1.983751,3.906533,-1.980297,3.915341,-1.977502,3.923960,-1.975405,3.932373,-1.974050,3.940569,-1.972847,3.953983,-1.972470,3.967165,
-1.972896,3.980096,-1.973710,3.988652,-0.701115,3.988652,-0.701047,3.975031,-0.699701,3.961514,-0.697162,3.948097,-0.693517,3.934781,-0.688852,3.921565,-0.683253,3.908447,-0.676804,3.895426,-0.669593,3.882503,-0.661706,3.869674,-0.644243,3.844300,-0.625104,3.819297,-0.604975,3.794656,-0.564495,3.746431,-0.545518,3.722831,-0.528300,3.699562,-0.487945,3.636631,-0.452763,3.571227,
-0.422769,3.503692,-0.397982,3.434372,-0.378417,3.363609,-0.364093,3.291748,-0.355026,3.219134,-0.351232,3.146109,-0.352729,3.073017,-0.359534,3.000204,-0.371664,2.928012,-0.389135,2.856786,-0.411964,2.786870,-0.440169,2.718607,-0.473767,2.652342,-0.512773,2.588418,-0.655961,2.410601,-0.663344,2.399043,-0.670158,2.387356,-0.676339,2.375524,-0.681823,2.363536,-0.686545,2.351378,
-0.690443,2.339038,-0.693451,2.326501,-0.695505,2.313756,-0.696542,2.300788,-0.696498,2.287586,-0.695307,2.274135,-0.692907,2.260423,-0.689233,2.246437,-0.684221,2.232164,-0.677806,2.217590,-0.669926,2.202703,-0.665692,2.195796,-0.660777,2.188628,-0.655245,2.181283,-0.649158,2.173845,-0.642579,2.166396,-0.635571,2.159021,-0.628197,2.151801,-0.620521,2.144822,-0.612604,2.138165,
-0.604509,2.131915,-0.596300,2.126156,-0.588040,2.120969,-0.579790,2.116439,-0.571615,2.112648,-0.567575,2.111057,-0.563577,2.109681,-0.559629,2.108533,-0.555739,2.107621,-0.555740,2.107620,-0.540074,2.104940,-0.524752,2.103354,-0.509768,2.102820,-0.495114,2.103297,-0.480785,2.104742,-0.466774,2.107114,-0.453075,2.110371,-0.439681,2.114470,-0.426587,2.119372,-0.413786,2.125032,
-0.401271,2.131410,-0.389037,2.138464,-0.377076,2.146152,-0.365383,2.154432,-0.342775,2.172602,-0.321161,2.192638,-0.300492,2.214206,-0.280715,2.236971,-0.261781,2.260600,-0.243639,2.284757,-0.226239,2.309107,-0.193459,2.357051,-0.138800,2.444872,-0.091261,2.535387,-0.050843,2.628227,-0.017547,2.723020,0.008626,2.819396,0.027675,2.916984,0.039600,3.015413,0.044400,3.114313,
0.042074,3.213314,0.032620,3.312043,0.016039,3.410132,-0.007671,3.507208,-0.038510,3.602902,-0.076480,3.696843,-0.121581,3.788660,-0.173814,3.877982,-0.211460,3.935575,-0.233159,3.966666,-0.256610,3.998205,-0.281691,4.029378,-0.308280,4.059375,-0.336254,4.087383,-0.350721,4.100388,-0.365489,4.112591,-0.380541,4.123891,-0.395863,4.134187,-0.411438,4.143376,-0.427253,4.151358,
-0.443290,4.158030,-0.459536,4.163292,-0.475974,4.167042,-0.492589,4.169179,-0.509367,4.169600,-0.526291,4.168205,-0.543346,4.164892,-0.560517,4.159559,-0.577788,4.152105,-0.595145,4.142429,-0.612571,4.130429,-0.630052,4.116003,-0.645350,4.101417,-0.658597,4.086942,-0.669879,4.072578,-0.679282,4.058323,-0.686892,4.044176,-0.692794,4.030136,-0.697075,4.016203,-0.699820,4.002375,
-0.701115,3.988652,-1.973710,3.988652,-1.974100,3.992755,-1.976058,4.005124,-1.978745,4.017182,-1.982136,4.028910,-1.986208,4.040289,-1.990935,4.051299,-1.996293,4.061921,-2.002259,4.072135,-2.008807,4.081921,-2.015912,4.091260,-2.023552,4.100132,-2.031700,4.108519,-2.040332,4.116400,-2.049425,4.123755,-2.058953,4.130566,-2.068893,4.136813,-2.079219,4.142475,-2.089908,4.147535,
-2.100934,4.151971,-2.112273,4.155765,-2.123902,4.158897,-2.135795,4.161348,-2.147927,4.163097,-2.160276,4.164126,-2.172815,4.164415,-2.185521,4.163944,-2.198369,4.162694,-2.211334,4.160646,-2.224393,4.157779,-2.239226,4.153133,-2.254272,4.146638,-2.269498,4.138396,-2.284868,4.128510,-2.300349,4.117081,-2.315906,4.104212,-2.347108,4.074560,-2.378201,4.040369,-2.408906,4.002457,
-2.438950,3.961638,-2.468055,3.918730,-2.495946,3.874548,-2.522346,3.829909,-2.546981,3.785628,-2.569574,3.742521,-2.589848,3.701405,-2.607529,3.663097,-2.622340,3.628411,-2.634006,3.598164,-2.659291,3.520523,-2.679718,3.441687,-2.695325,3.361909,-2.706152,3.281444,-2.712238,3.200549,-2.713622,3.119476,-3.106933,3.119476,-3.107273,3.198826,-3.097132,3.337519,-3.076204,3.475242,
-3.044437,3.611294,-3.001778,3.744973,-2.948176,3.875578,-2.883579,4.002407,-2.807935,4.124759,-2.562752,4.419284,-2.553292,4.435197,-2.545571,4.451366,-2.539531,4.467719,-2.535114,4.484182,-2.532262,4.500682,-2.530917,4.517146,-2.531022,4.533500,-2.531187,4.535282,-0.141500,4.535282,-0.141324,4.522398,-0.140040,4.509769,-0.137716,4.497383,-0.134422,4.485226,-0.130224,4.473285,
-0.125190,4.461546,-0.119390,4.449997,-0.112892,4.438624,-0.105763,4.427413,-0.098071,4.416352,-0.081274,4.394623,-0.063045,4.373332,-0.043930,4.352372,-0.005223,4.311015,0.013278,4.290406,0.030484,4.269701,0.079524,4.204904,0.125454,4.139016,0.168271,4.072109,0.207972,4.004254,0.244554,3.935524,0.278013,3.865990,0.308347,3.795724,0.335551,3.724799,0.359624,3.653286,
0.380561,3.581256,0.398360,3.508784,0.413017,3.435939,0.424530,3.362794,0.432894,3.289422,0.438108,3.215893,0.440166,3.142280,0.439068,3.068656,0.434808,2.995091,0.427385,2.921658,0.416794,2.848428,0.403034,2.775475,0.386099,2.702869,0.365988,2.630682,0.342697,2.558988,0.316224,2.487857,0.286563,2.417361,0.253714,2.347573,0.217671,2.278565,0.178433,2.210407,
0.135996,2.143174,0.090357,2.076935,0.041512,2.011764,0.026337,1.993270,0.010556,1.975545,-0.021822,1.941655,-0.053611,1.908606,-0.068655,1.891931,-0.082799,1.874909,-0.095789,1.857354,-0.101773,1.848317,-0.107375,1.839078,-0.112563,1.829612,-0.117305,1.819896,-0.121571,1.809908,-0.125328,1.799623,-0.128546,1.789019,-0.131193,1.778072,-0.133237,1.766759,-0.134648,1.755057,
-0.135393,1.742942,-0.135442,1.730392,-0.134762,1.717383,-0.133323,1.703891,-0.132372,1.698012,-0.131076,1.692025,-0.129449,1.685947,-0.127503,1.679795,-0.122702,1.667335,-0.116774,1.654781,-0.109819,1.642266,-0.101938,1.629926,-0.093231,1.617894,-0.083797,1.606307,-0.073737,1.595298,-0.063151,1.585002,-0.052139,1.575554,-0.040801,1.567088,-0.035042,1.563266,-0.029238,1.559740,
-0.023403,1.556526,-0.017550,1.553643,-0.011689,1.551106,-0.005836,1.548932,0.000000,1.547139,0.005803,1.545742,0.005802,1.545742,0.011349,1.544713,0.017305,1.543819,0.023613,1.543061,0.030213,1.542438,0.044057,1.541604,0.058368,1.541318,0.072676,1.541584,0.086514,1.542404,0.093110,1.543024,0.099412,1.543782,0.105362,1.544681,0.110901,1.545721,0.119114,1.547928,
0.127722,1.551170,0.136692,1.555388,0.145993,1.560524,0.165457,1.573320,0.185855,1.589092,0.206928,1.607379,0.228420,1.627716,0.250070,1.649640,0.271622,1.672688,0.292817,1.696394,0.313397,1.720297,0.351677,1.766837,0.384399,1.808598,0.409495,1.841873,0.462674,1.916952,0.512279,1.993746,0.558313,2.072135,0.600778,2.151999,0.639676,2.233219,0.675010,2.315674,
0.734992,2.483813,0.780742,2.655459,0.812279,2.829653,0.829619,3.005438,0.832781,3.181857,0.821783,3.357951,0.796643,3.532764,0.757379,3.705336,0.704007,3.874711,0.636547,4.039932,0.597540,4.120684,0.555017,4.200039,0.508980,4.277876,0.459433,4.354076,0.406377,4.428519,0.349814,4.501085,0.307566,4.551946,0.283913,4.578892,0.258799,4.605827,0.232393,4.631985,
0.204866,4.656597,0.176386,4.678900,0.161842,4.688945,0.147123,4.698125,0.132250,4.706344,0.117246,4.713506,0.102130,4.719516,0.086924,4.724277,0.071650,4.727695,0.056328,4.729672,0.040980,4.730114,0.025626,4.728924,0.010288,4.726007,-0.005012,4.721266,-0.020255,4.714607,-0.035417,4.705933,-0.050480,4.695148,-0.065420,4.682157,-0.080218,4.666864,-0.094851,4.649173,
-0.105991,4.633761,-0.115477,4.618711,-0.123379,4.604011,-0.129764,4.589647,-0.134700,4.575605,-0.138256,4.561873,-0.140500,4.548436,-0.141500,4.535282,-2.531187,4.535282,-2.532518,4.549671,-2.535349,4.565586,-2.539455,4.581172,-2.544781,4.596354,-2.551266,4.611061,-2.558855,4.625219,-2.567489,4.638754,-2.577110,4.651594,-2.587661,4.663664,-2.599083,4.674893,-2.611319,4.685205,
-2.624312,4.694529,-2.638002,4.702791,-2.652334,4.709918,-2.667248,4.715836,-2.682687,4.720472,-2.698593,4.723753,-2.714909,4.725606,-2.731577,4.725957,-2.748538,4.724733,-2.765736,4.721862,-2.783112,4.717268,-2.800608,4.710880,-2.818167,4.702624,-2.835731,4.692427,-2.852440,4.680593,-2.870454,4.665729,-2.889543,4.648209,-2.909480,4.628409,-2.930037,4.606704,-2.950986,4.583471,
-2.993145,4.533920,-3.034132,4.482759,-3.072120,4.432994,-3.105286,4.387627,-3.131802,4.349664,-3.180561,4.274508,-3.225865,4.197835,-3.267719,4.119757,-3.306129,4.040385,-3.372641,3.878210,-3.425451,3.712204,-3.464605,3.543263,-3.490152,3.372284,-3.502141,3.200160,-5.772827,3.200160,-5.770705,3.335098,-5.749622,3.605627,-5.711289,3.876815,-5.655306,4.148007,-5.581270,4.418548,
-5.488783,4.687783,-5.377442,4.955057,-5.244541,5.224021,-5.097142,5.478967,-4.936058,5.719775,-4.762103,5.946326,-4.576091,6.158501,-4.378836,6.356180,-4.171153,6.539244,-3.953855,6.707572,-3.727755,6.861047,-3.493669,6.999548,-3.252410,7.122955,-3.004792,7.231150,-2.751628,7.324013,-2.493734,7.401425,-2.231923,7.463265,-1.967008,7.509415,-1.699805,7.539756,-1.431126,7.554167,
-1.161786,7.552529,-1.161786,7.552529,$1*%
G04 Aperture macros list end*
%ADD10C,4.472019*%
%ADD11C,0.000000*%
%ADD12FreePoly0,180.000000*%
%ADD13RoundRect,0.250000X-0.750000X3.250000X-0.750000X-3.250000X0.750000X-3.250000X0.750000X3.250000X0*%
%ADD14RoundRect,0.250000X-0.500000X2.750000X-0.500000X-2.750000X0.500000X-2.750000X0.500000X2.750000X0*%
G04 APERTURE END LIST*
%TO.C,TP1*%
D10*
X218340209Y-81061600D02*
G75*
G02*
X213868191Y-81061600I-2236009J0D01*
G01*
X213868191Y-81061600D02*
G75*
G02*
X218340209Y-81061600I2236009J0D01*
G01*
D11*
%TO.C,REF\u002A\u002A*%
G36*
X215495106Y-60447120D02*
G01*
X215495106Y-59692740D01*
X215789746Y-59692740D01*
X215789746Y-61445340D01*
X215495106Y-61445340D01*
X215495106Y-60861140D01*
X215233486Y-60576660D01*
X215194751Y-60624801D01*
X215157286Y-60673974D01*
X215121091Y-60724178D01*
X215086166Y-60775415D01*
X215052511Y-60827683D01*
X215020126Y-60880984D01*
X214989011Y-60935316D01*
X214959166Y-60990680D01*
X214930154Y-61046679D01*
X214902810Y-61102916D01*
X214877132Y-61159392D01*
X214853121Y-61216105D01*
X214830777Y-61273056D01*
X214810100Y-61330246D01*
X214791089Y-61387674D01*
X214773746Y-61445340D01*
X214435926Y-61445340D01*
X214460969Y-61372553D01*
X214487837Y-61300242D01*
X214516531Y-61228408D01*
X214547051Y-61157050D01*
X214579396Y-61086168D01*
X214613567Y-61015762D01*
X214649564Y-60945833D01*
X214687386Y-60876380D01*
X214726796Y-60807879D01*
X214767555Y-60740807D01*
X214809663Y-60675164D01*
X214853121Y-60610950D01*
X214897928Y-60548164D01*
X214944085Y-60486807D01*
X214991591Y-60426879D01*
X215040446Y-60368380D01*
X214418146Y-59692740D01*
X214791526Y-59692740D01*
X215495106Y-60447120D01*
G37*
G36*
X212480841Y-61023700D02*
G01*
X212757700Y-60251540D01*
X213049801Y-60251540D01*
X212612920Y-61376760D01*
X212653561Y-61483440D01*
X212659305Y-61498114D01*
X212665110Y-61512293D01*
X212670973Y-61525975D01*
X212676897Y-61539161D01*
X212682880Y-61551851D01*
X212688922Y-61564045D01*
X212695024Y-61575743D01*
X212701185Y-61586945D01*
X212707406Y-61597651D01*
X212713687Y-61607860D01*
X212720027Y-61617574D01*
X212726427Y-61626791D01*
X212732886Y-61635513D01*
X212739404Y-61643738D01*
X212745983Y-61651467D01*
X212752620Y-61658700D01*
X212759437Y-61665467D01*
X212766551Y-61671797D01*
X212773962Y-61677690D01*
X212781672Y-61683147D01*
X212789679Y-61688168D01*
X212797983Y-61692752D01*
X212806586Y-61696899D01*
X212815486Y-61700610D01*
X212824683Y-61703884D01*
X212834178Y-61706722D01*
X212843971Y-61709123D01*
X212854062Y-61711087D01*
X212864450Y-61712615D01*
X212875136Y-61713707D01*
X212886119Y-61714362D01*
X212897401Y-61714580D01*
X212906350Y-61714431D01*
X212915419Y-61713985D01*
X212924606Y-61713240D01*
X212933913Y-61712199D01*
X212943339Y-61710859D01*
X212952884Y-61709222D01*
X212962548Y-61707287D01*
X212972330Y-61705055D01*
X212982233Y-61702525D01*
X212992254Y-61699697D01*
X213002394Y-61696572D01*
X213012653Y-61693149D01*
X213023031Y-61689428D01*
X213033529Y-61685410D01*
X213044145Y-61681094D01*
X213054881Y-61676480D01*
X213054881Y-61917780D01*
X213044602Y-61922086D01*
X213034084Y-61926114D01*
X213023329Y-61929865D01*
X213012336Y-61933337D01*
X213001104Y-61936532D01*
X212989634Y-61939449D01*
X212977926Y-61942088D01*
X212965980Y-61944450D01*
X212953796Y-61946533D01*
X212941374Y-61948339D01*
X212928714Y-61949867D01*
X212915815Y-61951117D01*
X212902679Y-61952090D01*
X212889304Y-61952784D01*
X212875691Y-61953201D01*
X212861841Y-61953340D01*
X212844219Y-61952993D01*
X212826916Y-61951951D01*
X212809929Y-61950215D01*
X212793261Y-61947784D01*
X212776909Y-61944658D01*
X212760876Y-61940838D01*
X212745159Y-61936324D01*
X212729761Y-61931115D01*
X212714679Y-61925211D01*
X212699916Y-61918613D01*
X212685469Y-61911321D01*
X212671341Y-61903334D01*
X212657529Y-61894652D01*
X212644036Y-61885276D01*
X212630859Y-61875205D01*
X212618001Y-61864440D01*
X212605142Y-61853050D01*
X212592601Y-61841104D01*
X212580377Y-61828602D01*
X212568471Y-61815545D01*
X212556882Y-61801932D01*
X212545611Y-61787764D01*
X212534657Y-61773040D01*
X212524021Y-61757760D01*
X212513702Y-61741925D01*
X212503701Y-61725534D01*
X212494017Y-61708587D01*
X212484651Y-61691085D01*
X212475602Y-61673027D01*
X212466871Y-61654414D01*
X212458457Y-61635245D01*
X212450361Y-61615520D01*
X211901720Y-60251540D01*
X212186200Y-60251540D01*
X212480841Y-61023700D01*
G37*
G36*
X214305967Y-60731411D02*
G01*
X214308646Y-60753984D01*
X214310729Y-60776973D01*
X214312218Y-60800378D01*
X214313111Y-60824201D01*
X214313408Y-60848440D01*
X214313120Y-60872679D01*
X214312257Y-60896501D01*
X214310819Y-60919907D01*
X214308804Y-60942896D01*
X214306215Y-60965468D01*
X214303050Y-60987624D01*
X214299309Y-61009363D01*
X214294993Y-61030685D01*
X214290102Y-61051590D01*
X214284635Y-61072079D01*
X214278592Y-61092151D01*
X214271974Y-61111806D01*
X214264781Y-61131045D01*
X214257012Y-61149867D01*
X214248668Y-61168272D01*
X214239748Y-61186260D01*
X214229985Y-61203782D01*
X214219746Y-61220788D01*
X214209030Y-61237278D01*
X214197838Y-61253252D01*
X214186170Y-61268711D01*
X214174026Y-61283653D01*
X214161405Y-61298079D01*
X214148308Y-61311990D01*
X214134735Y-61325384D01*
X214120686Y-61338263D01*
X214106160Y-61350626D01*
X214091158Y-61362472D01*
X214075680Y-61373803D01*
X214059726Y-61384618D01*
X214043295Y-61394917D01*
X214026388Y-61404700D01*
X214009064Y-61413927D01*
X213991384Y-61422559D01*
X213973346Y-61430596D01*
X213954951Y-61438037D01*
X213936198Y-61444884D01*
X213917089Y-61451134D01*
X213897622Y-61456790D01*
X213877798Y-61461850D01*
X213857617Y-61466315D01*
X213837079Y-61470184D01*
X213816183Y-61473459D01*
X213794931Y-61476137D01*
X213773321Y-61478221D01*
X213751354Y-61479709D01*
X213729030Y-61480602D01*
X213706348Y-61480900D01*
X213685909Y-61480702D01*
X213665867Y-61480106D01*
X213646222Y-61479114D01*
X213626973Y-61477725D01*
X213608122Y-61475939D01*
X213589667Y-61473756D01*
X213571609Y-61471176D01*
X213553948Y-61468200D01*
X213536684Y-61464826D01*
X213519817Y-61461056D01*
X213503347Y-61456889D01*
X213487273Y-61452325D01*
X213471597Y-61447364D01*
X213456317Y-61442006D01*
X213441434Y-61436252D01*
X213426948Y-61430100D01*
X213412750Y-61423224D01*
X213398730Y-61415932D01*
X213384889Y-61408222D01*
X213371227Y-61400096D01*
X213357743Y-61391554D01*
X213344438Y-61382594D01*
X213331311Y-61373218D01*
X213318363Y-61363425D01*
X213305594Y-61353215D01*
X213293003Y-61342589D01*
X213280591Y-61331546D01*
X213268357Y-61320086D01*
X213256302Y-61308210D01*
X213244425Y-61295917D01*
X213232728Y-61283207D01*
X213221208Y-61270080D01*
X213383768Y-61097360D01*
X213391755Y-61106746D01*
X213399842Y-61115854D01*
X213408027Y-61124685D01*
X213416312Y-61133237D01*
X213424696Y-61141512D01*
X213433179Y-61149509D01*
X213441761Y-61157229D01*
X213450443Y-61164670D01*
X213459224Y-61171834D01*
X213468104Y-61178719D01*
X213477083Y-61185327D01*
X213486162Y-61191657D01*
X213495340Y-61197710D01*
X213504617Y-61203484D01*
X213513993Y-61208981D01*
X213523468Y-61214200D01*
X213533082Y-61218814D01*
X213542875Y-61223130D01*
X213552847Y-61227148D01*
X213562997Y-61230869D01*
X213573326Y-61234292D01*
X213583833Y-61237417D01*
X213594519Y-61240245D01*
X213605383Y-61242775D01*
X213616426Y-61245007D01*
X213627648Y-61246942D01*
X213639048Y-61248579D01*
X213650627Y-61249919D01*
X213662384Y-61250960D01*
X213674320Y-61251705D01*
X213686435Y-61252151D01*
X213698728Y-61252300D01*
X213716300Y-61251963D01*
X213733455Y-61250951D01*
X213750193Y-61249264D01*
X213766514Y-61246902D01*
X213782419Y-61243866D01*
X213797907Y-61240156D01*
X213812979Y-61235770D01*
X213827633Y-61230710D01*
X213841871Y-61224975D01*
X213855692Y-61218566D01*
X213869097Y-61211481D01*
X213882084Y-61203722D01*
X213894655Y-61195289D01*
X213906810Y-61186181D01*
X213918547Y-61176398D01*
X213929868Y-61165940D01*
X213940405Y-61154569D01*
X213950426Y-61142683D01*
X213959931Y-61130281D01*
X213968921Y-61117362D01*
X213977394Y-61103928D01*
X213985351Y-61089978D01*
X213992793Y-61075512D01*
X213999718Y-61060530D01*
X214006128Y-61045032D01*
X214012021Y-61029018D01*
X214017399Y-61012488D01*
X214022261Y-60995442D01*
X214026606Y-60977881D01*
X214030436Y-60959803D01*
X214033750Y-60941209D01*
X214036548Y-60922100D01*
X213203428Y-60922100D01*
X213201206Y-60888921D01*
X213199618Y-60860505D01*
X213198666Y-60836851D01*
X213198428Y-60826810D01*
X213198348Y-60817960D01*
X213198894Y-60784106D01*
X213200531Y-60751126D01*
X213203260Y-60719019D01*
X213203275Y-60718900D01*
X213452348Y-60718900D01*
X214031468Y-60718900D01*
X214028412Y-60702628D01*
X214024959Y-60686832D01*
X214021110Y-60671513D01*
X214016863Y-60656670D01*
X214012220Y-60642303D01*
X214007179Y-60628412D01*
X214001742Y-60614998D01*
X213995908Y-60602060D01*
X213989677Y-60589598D01*
X213983049Y-60577612D01*
X213976025Y-60566103D01*
X213968603Y-60555070D01*
X213960785Y-60544513D01*
X213952569Y-60534432D01*
X213943957Y-60524828D01*
X213934948Y-60515700D01*
X213925264Y-60506780D01*
X213915263Y-60498436D01*
X213904944Y-60490667D01*
X213894308Y-60483474D01*
X213883354Y-60476856D01*
X213872083Y-60470813D01*
X213860494Y-60465346D01*
X213848588Y-60460455D01*
X213836364Y-60456139D01*
X213823823Y-60452398D01*
X213810964Y-60449233D01*
X213797788Y-60446644D01*
X213784294Y-60444630D01*
X213770483Y-60443191D01*
X213756354Y-60442328D01*
X213741908Y-60442040D01*
X213726232Y-60442308D01*
X213710952Y-60443112D01*
X213696069Y-60444451D01*
X213681583Y-60446326D01*
X213667494Y-60448737D01*
X213653802Y-60451684D01*
X213640507Y-60455167D01*
X213627608Y-60459185D01*
X213615107Y-60463739D01*
X213603002Y-60468829D01*
X213591294Y-60474455D01*
X213579983Y-60480616D01*
X213569069Y-60487313D01*
X213558552Y-60494547D01*
X213548432Y-60502315D01*
X213538708Y-60510620D01*
X213529441Y-60519470D01*
X213520690Y-60528876D01*
X213512455Y-60538838D01*
X213504736Y-60549355D01*
X213497532Y-60560428D01*
X213490845Y-60572056D01*
X213484674Y-60584240D01*
X213479018Y-60596980D01*
X213473879Y-60610275D01*
X213469255Y-60624126D01*
X213465147Y-60638533D01*
X213461556Y-60653495D01*
X213458480Y-60669013D01*
X213455920Y-60685086D01*
X213453876Y-60701715D01*
X213452348Y-60718900D01*
X213203275Y-60718900D01*
X213207080Y-60687785D01*
X213211991Y-60657424D01*
X213217994Y-60627936D01*
X213225088Y-60599322D01*
X213233273Y-60571580D01*
X213242550Y-60544712D01*
X213252919Y-60518716D01*
X213264378Y-60493594D01*
X213276929Y-60469345D01*
X213290572Y-60445969D01*
X213305306Y-60423466D01*
X213321131Y-60401837D01*
X213338048Y-60381080D01*
X213355987Y-60361087D01*
X213374878Y-60342385D01*
X213394722Y-60324972D01*
X213415518Y-60308849D01*
X213437267Y-60294016D01*
X213459968Y-60280472D01*
X213483622Y-60268219D01*
X213508228Y-60257255D01*
X213533787Y-60247581D01*
X213560298Y-60239197D01*
X213587762Y-60232103D01*
X213616178Y-60226299D01*
X213645547Y-60221784D01*
X213675868Y-60218560D01*
X213707142Y-60216625D01*
X213739368Y-60215980D01*
X213759261Y-60216278D01*
X213778937Y-60217171D01*
X213798393Y-60218659D01*
X213817632Y-60220742D01*
X213836652Y-60223421D01*
X213855454Y-60226696D01*
X213874038Y-60230565D01*
X213892403Y-60235030D01*
X213910550Y-60240090D01*
X213928479Y-60245746D01*
X213946190Y-60251996D01*
X213963682Y-60258842D01*
X213980956Y-60266284D01*
X213998012Y-60274321D01*
X214014849Y-60282953D01*
X214031468Y-60292180D01*
X214047452Y-60301665D01*
X214063020Y-60311706D01*
X214078170Y-60322303D01*
X214092904Y-60333455D01*
X214107222Y-60345163D01*
X214121122Y-60357426D01*
X214134606Y-60370245D01*
X214147673Y-60383620D01*
X214160323Y-60397550D01*
X214172557Y-60412036D01*
X214184374Y-60427078D01*
X214195774Y-60442675D01*
X214206758Y-60458828D01*
X214217325Y-60475536D01*
X214227475Y-60492800D01*
X214237208Y-60510620D01*
X214246435Y-60528608D01*
X214255067Y-60547013D01*
X214263104Y-60565835D01*
X214270546Y-60585074D01*
X214277392Y-60604729D01*
X214283643Y-60624801D01*
X214289298Y-60645290D01*
X214294358Y-60666195D01*
X214298823Y-60687517D01*
X214302693Y-60709256D01*
X214304118Y-60718900D01*
X214305967Y-60731411D01*
G37*
%TD*%
D12*
%TO.C,TP1*%
X214775619Y-77937400D03*
%TD*%
D13*
%TO.C,J1*%
X219750000Y-46600000D03*
D14*
X217000000Y-46600000D03*
X215000000Y-46600000D03*
D13*
X212250000Y-46600000D03*
%TD*%
M02*
