999
"DXF R12 Output" (www.mydxf.blogspot.com)
 0 
SECTION
 2 
HEADER
 9 
$ACADVER
 1 
AC1009
 9 
$EXTMIN
 10 
 0 
 20 
 0 
 9 
$EXTMAX
 10 
 8.5 
 20 
 11 
 0 
ENDSEC
 0 
SECTION
 2 
ENTITIES
0
POLYLINE
8
Layer 1
62
255
70
0
10
0.000000
20
0.000000
66
1
0
VERTEX
8
Layer 1
10
8.063352
20
6.704544
70
0
0
VERTEX
8
Layer 1
10
8.752511
20
5.674073
70
0
0
VERTEX
8
Layer 1
10
8.994552
20
4.458235
70
0
0
VERTEX
8
Layer 1
10
8.752511
20
3.242396
70
0
0
VERTEX
8
Layer 1
10
8.063352
20
2.211925
70
0
0
SEQEND
8
Layer 1
0
POLYLINE
8
Layer 1
62
255
70
0
10
0.000000
20
0.000000
66
1
0
VERTEX
8
Layer 1
10
3.576024
20
2.217217
70
0
0
VERTEX
8
Layer 1
10
2.886865
20
3.247688
70
0
0
VERTEX
8
Layer 1
10
2.644848
20
4.463526
70
0
0
VERTEX
8
Layer 1
10
2.886865
20
5.679364
70
0
0
VERTEX
8
Layer 1
10
3.576024
20
6.709836
70
0
0
SEQEND
8
Layer 1
0
POLYLINE
8
Layer 1
62
255
70
0
10
0.000000
20
0.000000
66
1
0
VERTEX
8
Layer 1
10
9.560892
20
8.202084
70
0
0
VERTEX
8
Layer 1
10
10.221489
20
7.396201
70
0
0
VERTEX
8
Layer 1
10
10.707575
20
6.485544
70
0
0
VERTEX
8
Layer 1
10
11.007656
20
5.497856
70
0
0
VERTEX
8
Layer 1
10
11.110237
20
4.460880
70
0
0
VERTEX
8
Layer 1
10
11.007656
20
3.423906
70
0
0
VERTEX
8
Layer 1
10
10.707575
20
2.436222
70
0
0
VERTEX
8
Layer 1
10
10.221489
20
1.525566
70
0
0
VERTEX
8
Layer 1
10
9.560892
20
0.719677
70
0
0
SEQEND
8
Layer 1
0
POLYLINE
8
Layer 1
62
255
70
0
10
0.000000
20
0.000000
66
1
0
VERTEX
8
Layer 1
10
2.078493
20
0.719677
70
0
0
VERTEX
8
Layer 1
10
1.417896
20
1.525566
70
0
0
VERTEX
8
Layer 1
10
0.931817
20
2.436222
70
0
0
VERTEX
8
Layer 1
10
0.631744
20
3.423906
70
0
0
VERTEX
8
Layer 1
10
0.529166
20
4.460880
70
0
0
VERTEX
8
Layer 1
10
0.631744
20
5.497856
70
0
0
VERTEX
8
Layer 1
10
0.931817
20
6.485544
70
0
0
VERTEX
8
Layer 1
10
1.417896
20
7.396201
70
0
0
VERTEX
8
Layer 1
10
2.078493
20
8.202084
70
0
0
SEQEND
8
Layer 1
0
POLYLINE
8
Layer 1
62
255
70
1
10
0.000000
20
0.000000
66
1
0
VERTEX
8
Layer 1
10
6.878020
20
4.460880
70
0
0
VERTEX
8
Layer 1
10
6.794854
20
4.048934
70
0
0
VERTEX
8
Layer 1
10
6.568048
20
3.712531
70
0
0
VERTEX
8
Layer 1
10
6.231646
20
3.485719
70
0
0
VERTEX
8
Layer 1
10
5.819688
20
3.402548
70
0
0
VERTEX
8
Layer 1
10
5.407742
20
3.485719
70
0
0
VERTEX
8
Layer 1
10
5.071338
20
3.712531
70
0
0
VERTEX
8
Layer 1
10
4.844527
20
4.048934
70
0
0
VERTEX
8
Layer 1
10
4.761356
20
4.460880
70
0
0
VERTEX
8
Layer 1
10
4.844527
20
4.872827
70
0
0
VERTEX
8
Layer 1
10
5.071338
20
5.209230
70
0
0
VERTEX
8
Layer 1
10
5.407742
20
5.436042
70
0
0
VERTEX
8
Layer 1
10
5.819688
20
5.519212
70
0
0
VERTEX
8
Layer 1
10
6.231646
20
5.436042
70
0
0
VERTEX
8
Layer 1
10
6.568048
20
5.209230
70
0
0
VERTEX
8
Layer 1
10
6.794854
20
4.872827
70
0
0
VERTEX
8
Layer 1
10
6.878020
20
4.460880
70
0
0
VERTEX
8
Layer 1
10
6.878020
20
4.460880
70
0
0
SEQEND
8
Layer 1
 0 
ENDSEC
 0 
EOF