<svg width="44" height="33" viewBox="0 0 44 33" fill="none" xmlns="http://www.w3.org/2000/svg">
<path d="M30.4757 7.66C31.5914 8.77448 32.4766 10.0979 33.0804 11.5547C33.6843 13.0115 33.9952 14.573 33.9952 16.15C33.9952 17.727 33.6843 19.2885 33.0804 20.7453C32.4766 22.2021 31.5914 23.5255 30.4757 24.64M13.5157 24.62C12.4 23.5055 11.5149 22.1821 10.911 20.7253C10.3071 19.2685 9.99629 17.707 9.99629 16.13C9.99629 14.553 10.3071 12.9915 10.911 11.5347C11.5149 10.0779 12.4 8.75448 13.5157 7.64M36.1357 2C39.8851 5.75055 41.9915 10.8367 41.9915 16.14C41.9915 21.4433 39.8851 26.5294 36.1357 30.28M7.85573 30.28C4.10631 26.5294 2 21.4433 2 16.14C2 10.8367 4.10631 5.75055 7.85573 2M25.9957 16.14C25.9957 18.3491 24.2049 20.14 21.9957 20.14C19.7866 20.14 17.9957 18.3491 17.9957 16.14C17.9957 13.9309 19.7866 12.14 21.9957 12.14C24.2049 12.14 25.9957 13.9309 25.9957 16.14Z" stroke="white" stroke-width="4" stroke-linecap="round" stroke-linejoin="round"/>
</svg>
