<?xml version="1.0" encoding="UTF-8"?>
<svg id="Layer_1" data-name="Layer 1" xmlns="http://www.w3.org/2000/svg" viewBox="0 0 89.5 89.5">
  <defs>
    <style>
      .cls-1 {
        fill: #fff;
      }
    </style>
  </defs>
  <path d="M47.2755,0l4.14313.46263c18.79885,2.73579,34.097,17.55869,37.43769,36.27178l.58982,4.01808c-.12615,2.61907.16932,5.39475,0,7.99504-.57525,8.83406-4.95259,18.54495-10.70753,25.20817-21.35425,24.72448-61.17289,18.96704-74.65206-10.6976C-8.91107,34.65327,11.20977,1.54854,42.39258,0h4.88292ZM30.26576,28.89613c-.74153.15258-1.802,1.4344-2.29661,2.03248-6.15045,7.43714-6.67732,18.23374-1.24937,26.2279.60696.89392,2.125,2.90671,2.98402,3.45462,1.88645,1.20323,3.86376-1.05863,2.75129-2.75294-.62447-.95107-1.75287-1.90781-2.47114-2.96844-4.36394-6.44392-3.95509-15.11479.86945-21.18621.56705-.7136,1.7085-1.58251,1.85744-2.47116.25036-1.49375-.96649-2.64051-2.44507-2.33627ZM58.34289,28.89651c-.62183.12816-1.31892.9683-1.40222,1.59394-.19667,1.47718.96723,2.08489,1.76212,3.10297,5.42354,6.94639,5.328,15.85238-.11115,22.75716-.88028,1.11747-2.55211,2.14775-1.26322,3.8246,1.56361,2.03426,3.44595-.22108,4.48167-1.49254,6.26926-7.69615,6.51077-18.82643.6015-26.80151-.55352-.74702-2.14888-2.80516-3.00945-2.98484-.28566-.05965-.77317-.05875-1.05927.00022ZM36.15396,34.44915c-1.0149.10876-2.28484,1.7821-2.84014,2.60465-2.45139,3.63118-3.06738,8.3918-1.57688,12.52854.53756,1.49193,2.54651,5.24374,4.12838,5.64021,1.40804.3529,2.69785-.7353,2.52314-2.1892-.1044-.86881-1.55406-2.13765-2.07794-3.03044-1.95627-3.33386-1.87455-7.45881.26599-10.68383.8064-1.21494,2.32287-2.01633,1.65387-3.67382-.3234-.80124-1.23319-1.28648-2.07643-1.19611ZM52.68325,34.55954c-.41482.08488-.94267.59551-1.15086.95831-.92832,1.61777.77568,2.67397,1.5839,3.88752,2.24242,3.36701,2.15143,7.88886-.15649,11.19893-.86597,1.242-2.78348,2.62311-1.02553,4.1972,1.88168,1.68488,3.69613-.97692,4.59831-2.39895,2.99939-4.72768,2.93146-10.68748-.198-15.32907-.8475-1.25701-1.9485-2.86238-3.65133-2.51395ZM43.69752,39.00455c-1.85755.25168-3.83621,2.01508-4.46643,3.748-1.83539,5.04679,3.21339,9.76752,8.12127,7.57095,6.02327-2.69576,3.72193-12.31845-3.65484-11.31895Z"/>

  
  <path d="M46.2371,43.45714c1.90885,1.91114-1.05329,4.74134-2.85068,2.79687-1.78875-1.93514,1.05152-4.59818,2.85068-2.79687Z"/>
</svg>